<svg width="24" height="18" viewBox="0 0 24 18" fill="none" xmlns="http://www.w3.org/2000/svg">
<path d="M3.25323 6.97754H3.09375V9.00317H3.25323C3.63733 9.00317 3.87988 8.9292 4.06665 8.75964C4.27222 8.57568 4.39587 8.28186 4.39587 7.98779C4.39587 7.69434 4.27222 7.40924 4.06665 7.22528C3.87036 7.04657 3.63733 6.97754 3.25323 6.97754Z" fill="#666666"/>
<path d="M22 0H2C0.897461 0 0 0.896973 0 2V16C0 17.103 0.897461 18 2 18H22C23.1046 18 24 17.1046 24 16V2C24 0.896973 23.1025 0 22 0ZM19.2752 6.45844H20.1566C20.8419 6.45844 21.2349 6.78931 21.2349 7.36279C21.2349 7.83185 20.9884 8.13965 20.5407 8.2312L21.5 9.52167H20.769L19.9464 8.29108H19.8689V9.52167H19.2752V6.45844ZM17.1959 6.45844H18.8815V6.97748H17.7899V7.65735H18.8413V8.17621H17.7899V9.00311H18.8815V9.52167H17.1959V6.45844ZM14.6472 6.45844L15.4597 8.51599L16.2829 6.45844H16.9271L15.6108 9.60028H15.291L13.9978 6.45844H14.6472ZM4.45514 9.16803C4.1626 9.41223 3.82935 9.52167 3.36792 9.52167H2.5V6.45844H3.3725C4.33643 6.45844 5.0083 7.0882 5.0083 7.99219C5.0083 8.44299 4.80273 8.87885 4.45514 9.16803ZM5.87616 9.52167H5.2818V6.45844H5.87616V9.52167ZM7.15497 9.59534C6.7027 9.59534 6.37384 9.41626 6.09998 9.01215L6.48401 8.6405C6.62085 8.90656 6.84918 9.04901 7.13269 9.04901C7.39783 9.04901 7.59418 8.86517 7.59418 8.61694C7.59418 8.48834 7.53473 8.37793 7.41595 8.29999C7.3562 8.263 7.23773 8.20807 7.00507 8.12555C6.44684 7.92358 6.25537 7.70752 6.25537 7.28552C6.25537 6.78418 6.66663 6.40778 7.20575 6.40778C7.53986 6.40778 7.84558 6.52271 8.10114 6.74744L7.79016 7.1568C7.63531 6.98224 7.48895 6.90869 7.31085 6.90869C7.05469 6.90869 6.8681 7.0553 6.8681 7.24823C6.8681 7.41376 6.97284 7.50122 7.32947 7.63391C8.00562 7.88251 8.20593 8.10278 8.20593 8.58954C8.20593 9.1825 7.77264 9.59534 7.15497 9.59534ZM10.747 7.2804C10.4999 7.03735 10.2853 6.93567 10.0018 6.93567C9.44427 6.93567 9.00598 7.39966 9.00598 7.98773C9.00598 8.60809 9.43085 9.04437 10.0295 9.04437C10.299 9.04437 10.5094 8.94788 10.747 8.70886V9.41223C10.4768 9.54016 10.2577 9.5907 10.0018 9.5907C9.09674 9.5907 8.39343 8.89252 8.39343 7.99219C8.39343 7.1015 9.11536 6.38922 10.0159 6.38922C10.2716 6.38922 10.4861 6.44434 10.747 6.57733V7.2804ZM10.9409 8.0011C10.9409 7.77606 10.9863 7.56171 11.0684 7.3667C11.3144 6.78168 11.8904 6.37115 12.5621 6.37115C13.4573 6.37115 14.1831 7.10059 14.1831 8.00061C14.1831 8.11322 14.1717 8.22321 14.15 8.32941C13.9989 9.07208 13.3452 9.63068 12.5619 9.63068C11.6665 9.63068 10.9409 8.90112 10.9409 8.0011ZM23 16C23 16.5514 22.5514 17 22 17H12.6848C17.6269 15.2025 21.1011 12.9724 23 11.5637V16Z" fill="#666666"/>
<path d="M20.6235 7.39496C20.6235 7.09686 20.4224 6.94092 20.0521 6.94092H19.8691V7.86871H20.0427C20.4224 7.86871 20.6235 7.70288 20.6235 7.39496Z" fill="#666666"/>
</svg>
