<svg width="24" height="18" viewBox="0 0 24 18" fill="none" xmlns="http://www.w3.org/2000/svg">
<path d="M22 0H2C0.896973 0 0 0.896973 0 2V16C0 17.103 0.896973 18 2 18H22C23.103 18 24 17.103 24 16V2C24 0.896973 23.103 0 22 0ZM13.9746 12H13.4233L12.9932 14.582C12.9531 14.8232 12.7446 15 12.5 15H10.0005C9.71533 15 9.44336 14.8784 9.25391 14.6665C9.08942 14.4833 9.01648 14.2437 9.0166 14H7.00635C6.70215 14 6.41748 13.8652 6.22559 13.6309C6.03564 13.3984 5.96045 13.0967 6.01953 12.8027L7.34912 3.85352C7.42188 3.3667 7.84961 3 8.34473 3H12.9692C14.3184 3 15.4789 3.88672 15.8578 5.14374C17.1138 5.52332 18 6.67145 18 8C18 10.2056 16.1943 12 13.9746 12Z" fill="#666666"/>
<path d="M15.5465 5.05615C15.3634 5.02148 15.1754 5 14.9816 5H10.8966C10.3859 5 9.95861 5.38135 9.90246 5.88623L9.50402 9.44434C9.4884 9.58594 9.53332 9.72705 9.62853 9.8335C9.72326 9.93945 9.859 10 10.0011 10H11.9571C14.1866 10 16.0001 8.20557 16.0001 6C16.0001 5.81348 15.9781 5.63232 15.9454 5.45605C15.9073 5.25293 15.7491 5.09424 15.5465 5.05615Z" fill="#666666"/>
</svg>
