<svg width="24" height="18" viewBox="0 0 24 18" fill="none" xmlns="http://www.w3.org/2000/svg">
<path d="M22 0H2C0.896973 0 0 0.896973 0 2V16C0 17.103 0.896973 18 2 18H22C23.103 18 24 17.103 24 16V2C24 0.896973 23.103 0 22 0ZM13 15H5.5H5V14.5V3.5V3H5.5H13C16.3084 3 19 5.69159 19 9C19 12.3084 16.3084 15 13 15Z" fill="#666666"/>
<path d="M8.64087 9.80249H6.56543V13.4963H8.64087V9.80249Z" fill="#666666"/>
<path d="M7.60333 9.2312C8.3157 9.2312 8.89319 8.65371 8.89319 7.94135C8.89319 7.22898 8.3157 6.65149 7.60333 6.65149C6.89096 6.65149 6.31348 7.22898 6.31348 7.94135C6.31348 8.65371 6.89096 9.2312 7.60333 9.2312Z" fill="#666666"/>
<path d="M17.3348 8.54498C17.0919 5.27374 14.5189 4.56689 12.1796 4.56689H9.68652V6.74341H10.0555C10.7283 6.74341 11.146 7.19958 11.146 7.93372C11.146 8.69116 10.7383 9.14331 10.0555 9.14331H9.68652V13.498H12.1799C15.9814 13.498 17.3053 11.7324 17.3521 9.14294H15.851V6.74213H16.4493C16.4493 6.74213 16.4493 8.10474 16.4493 8.54498C16.5814 8.54498 16.9451 8.54498 17.3348 8.54498ZM12.9937 9.14294H11.515V6.7428H11.8137H12.9465V7.3407C12.9465 7.3407 12.4367 7.3407 12.1129 7.3407C12.1129 7.42303 12.1129 7.51752 12.1129 7.61859H12.9012V8.21667H12.1129C12.1129 8.33624 12.1129 8.44946 12.1129 8.54498C12.4463 8.5448 12.9937 8.5448 12.9937 8.5448V9.14294ZM14.9279 9.14331L14.7922 8.67883H14.0099L13.874 9.14331H13.2525L13.9761 6.74194H14.8268L15.5503 9.14331H14.9279Z" fill="#666666"/>
<path d="M14.3837 7.40308L14.1855 8.08142H14.6183L14.4198 7.40308H14.3837Z" fill="#666666"/>
<path d="M10.5475 7.93347C10.5475 7.40857 10.2843 7.34131 10.0549 7.34131C10.0549 7.34131 9.86835 7.34131 9.68555 7.34131C9.68555 7.6745 9.68555 8.21179 9.68555 8.54498C9.8681 8.54498 10.0549 8.54498 10.0549 8.54498C10.3109 8.54498 10.5475 8.47095 10.5475 7.93347Z" fill="#666666"/>
</svg>
