<svg width="24" height="18" viewBox="0 0 24 18" fill="none" xmlns="http://www.w3.org/2000/svg">
<path d="M12.038 13.7518C11.8121 13.7518 11.684 13.8953 11.6504 14.1058H12.4072C12.3737 13.88 12.2424 13.7518 12.038 13.7518Z" fill="#666666"/>
<path d="M7.3634 13.7671C7.08875 13.7671 6.9209 13.9777 6.9209 14.2339C6.9209 14.4903 7.08875 14.7009 7.3634 14.7009C7.62579 14.7009 7.8028 14.4995 7.8028 14.2339C7.8028 13.9685 7.62579 13.7671 7.3634 13.7671Z" fill="#666666"/>
<path d="M16.3166 13.7671C16.0419 13.7671 15.874 13.9777 15.874 14.2339C15.874 14.4903 16.0419 14.7009 16.3166 14.7009C16.579 14.7009 16.756 14.4995 16.756 14.2339C16.756 13.9685 16.579 13.7671 16.3166 13.7671Z" fill="#666666"/>
<path d="M22 0H2C0.896973 0 0 0.896973 0 2V16C0 17.103 0.896973 18 2 18H22C23.103 18 24 17.103 24 16V2C24 0.896973 23.103 0 22 0ZM6.31317 14.9634H5.99274V14.1516C5.99274 13.9044 5.88898 13.7671 5.67236 13.7671C5.46179 13.7671 5.31531 13.9014 5.31531 14.1547V14.9634H4.99487V14.1516C4.99487 13.9044 4.88806 13.7671 4.67749 13.7671C4.46082 13.7671 4.32043 13.9014 4.32043 14.1547V14.9634H4V13.5046H4.31738V13.6847C4.4364 13.5138 4.58899 13.468 4.74463 13.468C4.96741 13.468 5.1261 13.5657 5.22681 13.7274C5.36108 13.5229 5.55334 13.465 5.73944 13.468C6.09344 13.4711 6.31317 13.703 6.31317 14.0479V14.9634ZM8.1015 14.2339V14.9634H7.78412V14.7863C7.68341 14.9175 7.53082 15 7.3233 15C6.91437 15 6.59393 14.6795 6.59393 14.2339C6.59393 13.7885 6.91437 13.468 7.3233 13.468C7.53082 13.468 7.68341 13.5504 7.78412 13.6816V13.5046H8.1015V14.2339ZM9.04138 15C8.80334 15 8.58362 14.9389 8.40967 14.8107L8.5592 14.5635C8.66602 14.646 8.82471 14.7162 9.04443 14.7162C9.26111 14.7162 9.37708 14.652 9.37708 14.5391C9.37708 14.4567 9.29468 14.4109 9.12073 14.3866L8.97119 14.3652C8.64465 14.3195 8.46771 14.173 8.46771 13.9349C8.46771 13.645 8.70569 13.468 9.07495 13.468C9.30688 13.468 9.51746 13.5199 9.67004 13.6206L9.53271 13.877C9.44421 13.822 9.26416 13.7518 9.078 13.7518C8.90405 13.7518 8.80029 13.8159 8.80029 13.9227C8.80029 14.0204 8.91016 14.0479 9.04749 14.0662L9.19702 14.0875C9.5144 14.1333 9.70667 14.2676 9.70667 14.5239C9.70667 14.8016 9.46252 15 9.04138 15ZM10.7229 15C10.3475 15 10.2163 14.7985 10.2163 14.4598V13.7946H9.92029V13.5046H10.2163V13.0621H10.5367V13.5046H11.0555V13.7946H10.5367V14.4537C10.5367 14.6002 10.5886 14.6979 10.7473 14.6979C10.8297 14.6979 10.9334 14.6704 11.0281 14.6155L11.1196 14.8871C11.0189 14.9572 10.8602 15 10.7229 15ZM12.7309 14.356H11.6475C11.6933 14.6185 11.8795 14.7131 12.0839 14.7131C12.2304 14.7131 12.386 14.6582 12.5081 14.5605L12.6638 14.7955C12.4868 14.945 12.2853 15 12.0656 15C11.6292 15 11.3179 14.6979 11.3179 14.2339C11.3179 13.7793 11.617 13.468 12.0443 13.468C12.4532 13.468 12.7339 13.7793 12.737 14.2339C12.737 14.2767 12.7339 14.3164 12.7309 14.356ZM13.8905 13.8068C13.8234 13.7793 13.7562 13.7701 13.6922 13.7701C13.4846 13.7701 13.3809 13.9044 13.3809 14.1455V14.9634H13.0635V13.5046H13.3779V13.6816C13.4602 13.5535 13.5793 13.468 13.7623 13.468C13.8264 13.468 13.918 13.4802 13.9882 13.5077L13.8905 13.8068ZM14.8518 14.7009C14.9891 14.7009 15.1143 14.6552 15.2333 14.5696L15.3859 14.826C15.2272 14.9512 15.0807 15 14.861 15C14.391 15 14.0828 14.6765 14.0828 14.2339C14.0828 13.7915 14.391 13.468 14.861 13.468C15.0807 13.468 15.2272 13.5168 15.3859 13.642L15.2333 13.8983C15.1143 13.8129 14.9891 13.7671 14.8518 13.7671C14.5985 13.7701 14.4124 13.9532 14.4124 14.2339C14.4124 14.5147 14.5985 14.6979 14.8518 14.7009ZM17.0551 14.2339V14.9634H16.7377V14.7863C16.637 14.9175 16.4844 15 16.2769 15C15.868 15 15.5476 14.6795 15.5476 14.2339C15.5476 13.7885 15.868 13.468 16.2769 13.468C16.4844 13.468 16.637 13.5504 16.7377 13.6816V13.5046H17.0551V14.2339ZM18.3002 13.8068C18.2331 13.7793 18.166 13.7701 18.1018 13.7701C17.8943 13.7701 17.7906 13.9044 17.7906 14.1455V14.9634H17.4732V13.5046H17.7875V13.6816C17.8699 13.5535 17.989 13.468 18.1721 13.468C18.2361 13.468 18.3277 13.4802 18.3979 13.5077L18.3002 13.8068ZM20 14.2339V14.9634H19.6826V14.7863C19.5819 14.9175 19.4293 15 19.2218 15C18.8129 15 18.4924 14.6795 18.4924 14.2339C18.4924 13.7885 18.8129 13.468 19.2218 13.468C19.4293 13.468 19.5819 13.5504 19.6826 13.6816V12.9188H20V14.2339ZM15.25 12.5C13.9903 12.5 12.851 11.9987 12 11.1957C11.149 11.9987 10.0097 12.5 8.75 12.5C6.13086 12.5 4 10.3691 4 7.75C4 5.13086 6.13086 3 8.75 3C10.0097 3 11.149 3.50128 12 4.30432C12.851 3.50128 13.9903 3 15.25 3C17.8691 3 20 5.13086 20 7.75C20 10.3691 17.8691 12.5 15.25 12.5Z" fill="#666666"/>
<path d="M19.2618 13.7671C18.9871 13.7671 18.8193 13.9777 18.8193 14.2339C18.8193 14.4903 18.9871 14.7009 19.2618 14.7009C19.5242 14.7009 19.7012 14.4995 19.7012 14.2339C19.7012 13.9685 19.5242 13.7671 19.2618 13.7671Z" fill="#666666"/>
<path d="M12 4.30432C11.0815 5.17102 10.5 6.39056 10.5 7.75C10.5 9.10944 11.0815 10.329 12 11.1957C12.9185 10.329 13.5 9.10944 13.5 7.75C13.5 6.39056 12.9185 5.17102 12 4.30432Z" fill="#666666"/>
</svg>
