<svg width="24" height="18" viewBox="0 0 24 18" fill="none" xmlns="http://www.w3.org/2000/svg">
<path d="M10.3337 7.51263H9.08026V6.98901H10.3041V6.45166H9.08026V5.97937H10.3337V5.43323H8.54492V8.05481H10.3337V7.51263Z" fill="#666666"/>
<path d="M11.2412 7.10181H11.8154C12.0082 7.10181 12.1277 7.12183 12.2057 7.21368C12.303 7.33972 12.2901 7.56635 12.2901 7.72412L12.2926 8.05481H12.8329V7.53949C12.8329 7.30554 12.8199 7.18927 12.744 7.05884C12.6964 6.98267 12.5961 6.89032 12.4788 6.83807C12.6183 6.77356 12.8563 6.55719 12.8563 6.13959C12.8563 5.84698 12.7544 5.67603 12.5857 5.55878C12.412 5.44153 12.2103 5.43323 11.9368 5.43323H10.7051V8.05481H11.2412V7.10181ZM11.2408 5.97986H11.9005C11.9932 5.97986 12.0909 5.98523 12.1544 6.02722C12.2237 6.06531 12.2667 6.14642 12.2667 6.25873C12.2667 6.37305 12.2254 6.46539 12.1565 6.50787C12.0822 6.56012 11.9953 6.56158 11.8914 6.56158H11.2404L11.2408 5.97986Z" fill="#666666"/>
<path d="M6.81848 8.0553L7.59515 6.00232L7.59723 8.0553H8.1463V5.43372H7.2536L6.61017 7.21222L5.90912 5.43372H5.03473V7.91608L4.12323 5.43372H3.32825L2.36914 8.0553H2.95081L3.15869 7.47064H4.27356L4.47943 8.0553H5.56921V6.00037L6.34711 8.05481L6.81848 8.0553ZM3.34955 6.92401L3.71362 5.87921L4.07983 6.92401H3.34955Z" fill="#666666"/>
<path d="M14.9352 6.46045C14.9302 6.46881 14.8926 6.56305 14.8926 6.74475C14.8926 6.9245 14.9172 7.01099 14.9352 7.05005C14.954 7.05591 14.9886 7.06274 15.0404 7.06274L15.2726 6.42822H15.0897C15.0878 6.42822 15.0858 6.42822 15.084 6.42822C14.9631 6.42822 14.9504 6.44366 14.9352 6.46045Z" fill="#666666"/>
<path d="M13.7136 5.43372H13.167V8.0553H13.7136V5.43372Z" fill="#666666"/>
<path d="M15.0396 8.0553H15.6667L15.8679 7.47064H16.9803L17.189 8.0553H18.2792V6.08777L19.2956 8.0553H20.0538V5.43372H19.506V7.25958L18.564 5.43372H17.7485V7.91315L16.8417 5.43372H16.0396L15.283 7.49506H15.0428C14.903 7.49506 14.7518 7.46381 14.6696 7.35974C14.569 7.22784 14.5222 7.02515 14.5222 6.74475C14.5222 6.4693 14.5844 6.26117 14.6758 6.15082C14.7819 6.02966 14.8917 5.99548 15.0884 5.99548H15.5957V5.43372H15.0775C14.7084 5.43372 14.4366 5.52997 14.2642 5.73901C14.0345 6.0199 13.9756 6.37549 13.9756 6.76428C13.9756 7.24054 14.0742 7.54242 14.2629 7.76514C14.4491 7.98743 14.7786 8.05481 15.0396 8.0553ZM16.4274 5.87921L16.7986 6.92401H16.0596L16.4274 5.87921Z" fill="#666666"/>
<path d="M11.844 9.94556C11.8433 9.94556 11.8425 9.94556 11.8425 9.94556H10.1306L9.44916 10.8043L8.78943 9.94556H6.63574V12.5671H8.75732L9.44293 11.6992L10.1027 12.5671H11.1436V11.6879H11.8116C12.2797 11.6879 12.744 11.5375 12.744 10.8092C12.744 10.0846 12.2684 9.94556 11.844 9.94556ZM8.48633 12.0215H7.17023V11.4999H8.34558V10.9645H7.17023V10.4878H8.51263L9.09845 11.2512L8.48633 12.0215ZM10.61 12.3288L9.78741 11.26L10.61 10.2264V12.3288ZM11.8362 11.155H11.835H11.1436V10.4873H11.8417C12.0355 10.4873 12.1691 10.5796 12.1691 10.8092C12.1691 11.0354 12.0418 11.155 11.8362 11.155Z" fill="#666666"/>
<path d="M15.1533 10.6505C15.1533 10.3515 15.0468 10.1874 14.8785 10.0682C14.7015 9.95831 14.5044 9.94507 14.2334 9.94507H12.9971V12.5667H13.5349V11.6093H14.1069C14.3023 11.6093 14.4213 11.6318 14.4998 11.7255C14.5992 11.8477 14.5862 12.0811 14.5862 12.2389V12.5667H15.1237V12.0469C15.1219 11.8159 15.1111 11.6967 15.0347 11.5687C14.9896 11.4926 14.8915 11.3992 14.7729 11.3484C14.9132 11.2834 15.1525 11.07 15.1533 10.6505ZM14.4501 11.0226C14.3783 11.0724 14.2894 11.0768 14.185 11.0768H13.5341V10.4878H14.1938C14.2881 10.4878 14.3842 10.4902 14.4493 10.5352C14.5186 10.5776 14.5599 10.6592 14.5599 10.7711C14.5599 10.8829 14.5186 10.9738 14.4501 11.0226Z" fill="#666666"/>
<path d="M18.6697 10.9738L18.382 10.9641C18.2905 10.9641 18.2304 10.9572 18.1732 10.9342C18.106 10.9044 18.0563 10.838 18.0563 10.7388C18.0563 10.6558 18.078 10.5928 18.1373 10.5498C18.1907 10.5073 18.2538 10.5024 18.3519 10.5024H19.334V9.94458H18.2609C17.6989 9.94458 17.4951 10.3442 17.4951 10.7252C17.4951 11.5541 18.1227 11.517 18.6229 11.536C18.7169 11.536 18.7728 11.5541 18.8137 11.5941C18.8513 11.6312 18.8788 11.6909 18.8788 11.7675C18.8788 11.8389 18.853 11.8984 18.8162 11.9385C18.7711 11.9883 18.6989 12.0035 18.5978 12.0035H17.559V12.5657H18.602C19.1419 12.5657 19.4438 12.3024 19.4438 11.7382C19.4438 11.4691 19.3875 11.3089 19.283 11.1829C19.1599 11.0402 18.9603 10.9821 18.6697 10.9738Z" fill="#666666"/>
<path d="M20.8586 10.9738L20.5704 10.9641C20.4799 10.9641 20.4193 10.9572 20.3617 10.9342C20.2953 10.9044 20.2452 10.838 20.2452 10.7388C20.2452 10.6558 20.2669 10.5928 20.3258 10.5498C20.3796 10.5073 20.4431 10.5024 20.5408 10.5024H21.5233V9.94458H20.4494C19.8882 9.94458 19.6836 10.3442 19.6836 10.7252C19.6836 11.5541 20.3116 11.517 20.8122 11.536C20.9058 11.536 20.9613 11.5541 21.0031 11.5941C21.0398 11.6312 21.0677 11.6909 21.0677 11.7675C21.0677 11.8389 21.0414 11.8984 21.0056 11.9385C20.96 11.9883 20.8878 12.0035 20.7867 12.0035H19.7483V12.5657H20.7913C21.3312 12.5657 21.6323 12.3024 21.6323 11.7382C21.6323 11.4691 21.5767 11.3089 21.4716 11.1829C21.3492 11.0402 21.1492 10.9821 20.8586 10.9738Z" fill="#666666"/>
<path d="M22 0H2C0.897461 0 0 0.896973 0 2V16C0 17.103 0.897461 18 2 18H22C23.1025 18 24 17.103 24 16V2C24 0.896973 23.1025 0 22 0ZM6.00964 8.22968L5.93951 8.04358V8.05383C5.93951 8.29272 5.77374 8.48663 5.56958 8.48663H4.48022C4.3299 8.48663 4.19501 8.38062 4.13782 8.21844L4.02631 7.90192H3.40582L3.29272 8.2204C3.2359 8.38159 3.10065 8.48712 2.95197 8.48712H2.36993C2.24548 8.48712 2.12939 8.41382 2.06091 8.29272C1.99286 8.17059 1.98077 8.01721 2.03003 7.88385L2.98871 5.26227C3.04675 5.10352 3.18079 5 3.32904 5H4.12402C4.27228 5 4.40546 5.10303 4.46436 5.26178L4.66516 5.80988V5.43323C4.66516 5.1944 4.83051 5.00049 5.0351 5.00049H5.90985C6.05353 5.00049 6.18506 5.09912 6.24603 5.25201L6.59631 6.14203L6.91449 5.26471C6.97211 5.10449 7.10657 5.00049 7.25439 5.00049H8.14709C8.22223 5.00049 8.28778 5.0332 8.34668 5.07812C8.40515 5.0332 8.4707 5.00049 8.54626 5.00049H10.335C10.4044 5.00049 10.4657 5.02881 10.5204 5.06738C10.5759 5.02881 10.6369 5.00049 10.7062 5.00049H11.938C12.2566 5.00049 12.5201 5.01367 12.7719 5.18365C12.7973 5.20172 12.8157 5.22467 12.8386 5.2442C12.8987 5.10156 13.0223 5.00049 13.1681 5.00049H13.7147C13.8996 5.00049 14.0466 5.16168 14.0737 5.36829C14.3134 5.12549 14.64 5.00049 15.0792 5.00049H15.5974C15.6796 5.00049 15.7569 5.03223 15.8182 5.08643C15.8804 5.03174 15.9577 5.00049 16.0396 5.00049H16.8417C16.9894 5.00049 17.1227 5.104 17.1815 5.26276L17.3782 5.80109V5.43323C17.3782 5.1944 17.5439 5.00049 17.7485 5.00049H18.564C18.6939 5.00049 18.8137 5.07959 18.8806 5.20953L19.1353 5.70337V5.43274C19.1353 5.19391 19.3014 5 19.506 5H20.0538C20.2584 5 20.4238 5.19391 20.4238 5.43274V8.05432C20.4238 8.29321 20.2576 8.48712 20.0538 8.48712H19.2956C19.1649 8.48712 19.045 8.40796 18.9778 8.27808L18.6492 7.64062V8.05432C18.6492 8.29321 18.483 8.48712 18.2792 8.48712H17.189C17.04 8.48712 16.9059 8.38208 16.8475 8.22089L16.7343 7.9024H16.1172L16.0078 8.21649C15.9523 8.38013 15.8162 8.48761 15.6663 8.48761H15.0391C14.8007 8.48761 14.374 8.43726 14.0696 8.13885C14.0349 8.33618 13.8929 8.48761 13.7138 8.48761H13.1668C13.1063 8.48761 13.0507 8.46613 12.9994 8.4353C12.9489 8.46613 12.8942 8.48761 12.8332 8.48761H12.2929C12.0895 8.48761 11.9242 8.29565 11.9225 8.05823L11.9205 7.72754L11.9213 7.66992C11.9213 7.63477 11.9221 7.58197 11.9196 7.53754C11.895 7.53558 11.862 7.53412 11.8157 7.53412H11.6115V8.05481C11.6115 8.2937 11.4457 8.48761 11.2415 8.48761H10.7054C10.6361 8.48761 10.5756 8.45923 10.5196 8.42065C10.4649 8.45923 10.4035 8.48761 10.3342 8.48761H8.54541C8.46985 8.48761 8.4043 8.45441 8.34583 8.40991C8.28699 8.45441 8.22144 8.48761 8.14624 8.48761H7.59717C7.39258 8.48761 7.22723 8.29413 7.22723 8.0553V8.04456L7.15625 8.23016C7.09698 8.38696 6.96503 8.4881 6.81805 8.4881H6.34747C6.20129 8.4881 6.06854 8.38696 6.00964 8.22968ZM20.7919 12.999C20.7911 12.999 20.7903 12.999 20.7903 12.999H19.7465C19.5937 12.999 19.463 12.8901 19.4062 12.7357C19.2029 12.9042 18.934 12.999 18.6012 12.999H17.5582C17.4993 12.999 17.4467 12.98 17.3974 12.9521C17.3486 12.98 17.2955 12.999 17.2371 12.999H15.45C15.3903 12.999 15.3356 12.98 15.2863 12.9502C15.2366 12.979 15.1827 12.999 15.1235 12.999H14.5861C14.381 12.999 14.2157 12.8051 14.2157 12.5662V12.1852C14.2166 12.1481 14.2166 12.0914 14.2141 12.045C14.1894 12.0431 14.1547 12.0411 14.1055 12.0411H13.9034V12.5662C13.9034 12.8056 13.7376 12.999 13.5334 12.999H12.9952C12.7902 12.999 12.6249 12.8051 12.6249 12.5662V11.9C12.4349 12.0323 12.1727 12.1193 11.811 12.1193H11.5134V12.5662C11.5134 12.8056 11.3476 12.999 11.143 12.999H10.1021C9.9964 12.999 9.89539 12.9462 9.8252 12.8539L9.43732 12.343L9.0285 12.8608C8.95837 12.9492 8.86023 13 8.75714 13H6.63556C6.43097 13 6.26562 12.8056 6.26562 12.5667V9.94513C6.26562 9.70532 6.4314 9.5119 6.63556 9.5119H8.78925C8.8949 9.5119 8.99469 9.56366 9.06445 9.65552L9.45361 10.162L9.85901 9.65015C9.9292 9.56171 10.0273 9.5119 10.1304 9.5119H11.8416C12.2165 9.5119 12.4804 9.60907 12.6678 9.75269C12.7284 9.61102 12.8503 9.5119 12.9952 9.5119H14.232C14.5168 9.5119 14.7924 9.5246 15.0508 9.68628C15.0788 9.70532 15.0967 9.73022 15.1226 9.75073C15.1836 9.6106 15.3043 9.5119 15.4487 9.5119H17.2358C17.3745 9.5119 17.4913 9.60516 17.5548 9.73755C17.731 9.59784 17.9648 9.5119 18.2596 9.5119H19.3327C19.4943 9.5119 19.6271 9.63354 19.6785 9.80109C19.8622 9.62665 20.1131 9.5119 20.4476 9.5119H21.5215C21.7257 9.5119 21.8911 9.70581 21.8911 9.94513V10.503C21.8911 10.6559 21.8242 10.7902 21.7219 10.8674C21.7249 10.8713 21.729 10.8757 21.7328 10.8801C21.9165 11.1008 22 11.3734 22 11.7397C22 12.5278 21.5488 12.999 20.7919 12.999Z" fill="#666666"/>
<path d="M15.4492 12.5667H17.2363V12.023L15.9821 12.0201V11.4989H17.2054V10.9641H15.9821V10.4868H17.2363V9.94507H15.4492V12.5667Z" fill="#666666"/>
</svg>
