<svg width="24" height="18" viewBox="0 0 24 18" fill="none" xmlns="http://www.w3.org/2000/svg">
<path d="M21.998 0H2.00195C0.898926 0 0.00195312 0.896973 0.00195312 2V16C0.00195312 17.103 0.898926 18 2.00195 18H21.998C23.1011 18 23.998 17.103 23.998 16V2C23.998 0.896973 23.1011 0 21.998 0ZM15.9275 5.85583C16.3356 5.85583 16.6663 6.18671 16.6663 6.5946C16.6663 7.00232 16.3356 7.33295 15.9275 7.33295C15.52 7.33295 15.1893 7.00232 15.1893 6.5946C15.1893 6.18671 15.52 5.85583 15.9275 5.85583ZM5.10126 12.0038C4.33594 12.0038 3.68292 11.928 3.10364 11.7761V10.4326C3.49054 10.5914 4.12769 10.7589 4.78442 10.7589C5.38361 10.7589 5.73993 10.5603 5.73993 10.2235C5.73993 9.81555 5.30475 9.79053 5.14075 9.78046C3.2063 9.6485 2.99805 8.50488 2.99805 8.01892C2.99805 7.17596 3.59656 6.19196 5.28564 6.19196C6.26526 6.19196 6.7937 6.34491 7.24811 6.50397L7.27148 6.5108V7.7981V7.81537L7.25439 7.81079C7.07166 7.73315 6.85681 7.65741 6.85681 7.65741C6.4718 7.54224 5.93262 7.41925 5.51624 7.41925C5.27948 7.41925 4.64819 7.41925 4.64819 7.89563C4.64819 8.29034 5.08673 8.31866 5.27612 8.33105C6.66473 8.42413 7.49249 9.10388 7.49249 10.1501C7.49249 11.0728 6.75275 12.0038 5.10126 12.0038ZM11.9365 11.942H10.0845C10.0845 11.942 9.86334 10.9307 9.41553 10.259V11.942H7.86926V6.49756L9.41553 6.19196V9.19562C9.99585 8.4931 10.2358 7.81537 10.269 7.73157H12.0374C11.9871 7.89258 11.6712 8.8642 10.9519 9.776C10.9519 9.776 11.7534 11.1804 11.9365 11.942ZM14.7314 8.92548C13.8538 8.95569 13.757 9.27271 13.757 10.0124V11.942H12.2461V9.57574C12.2461 8.34058 12.9491 7.71924 14.334 7.67474C14.334 7.67474 14.5838 7.6651 14.7314 7.69647V8.92548ZM16.6772 11.942H15.1785V7.73633H16.6772V11.942ZM18.8095 11.942H17.3121V6.46008L18.8095 6.19196V11.942ZM20.998 11.942H19.4991V6.46008L20.998 6.19196V11.942Z" fill="#666666"/>
</svg>
