<svg width="24" height="18" viewBox="0 0 24 18" fill="none" xmlns="http://www.w3.org/2000/svg">
<path d="M22 0H2C0.896973 0 0 0.896973 0 2V16C0 17.103 0.896973 18 2 18H22C23.103 18 24 17.103 24 16V2C24 0.896973 23.103 0 22 0ZM5.00201 7.10052C5.01306 7.04242 5.06781 7 5.13171 7H5.13196L6.36926 7.00183C6.37091 7.00183 6.37268 7.00189 6.37439 7.00189C6.55548 7.00867 6.80542 7.04932 6.88434 7.32288C6.88495 7.32489 6.88544 7.3269 6.88593 7.32904L7.10547 8.28668C7.11816 8.34229 7.0874 8.39874 7.03137 8.42236C7.01379 8.42981 6.99512 8.43329 6.97662 8.43329C6.93646 8.43329 6.89728 8.41632 6.87177 8.38531C6.45862 7.88379 5.84155 7.48627 5.0871 7.23578C5.02679 7.21576 4.99097 7.15863 5.00201 7.10052ZM7.91632 10.994L6.85425 10.9954H6.85413C6.79559 10.9954 6.74414 10.9598 6.72772 10.908L5.80548 8.00079C5.78949 7.95032 5.81049 7.89606 5.85748 7.86639C5.90448 7.83667 5.96686 7.8382 6.01215 7.87036C6.67615 8.34119 7.15204 8.93457 7.3291 9.31378C7.3316 9.31885 7.33362 9.32416 7.33514 9.32953L7.45581 9.73254L8.57776 7.08813C8.59753 7.04156 8.64618 7.01086 8.70032 7.01086L9.6593 7.01044H9.65942C9.70374 7.01044 9.74506 7.03101 9.76941 7.06512C9.79376 7.09924 9.79791 7.14246 9.7804 7.17999L8.03711 10.9205C8.0163 10.9651 7.96887 10.994 7.91632 10.994ZM10.7965 10.8972C10.7858 10.9556 10.7309 10.9984 10.6667 10.9984H9.75507C9.71625 10.9984 9.67944 10.9826 9.65442 10.9552C9.62946 10.9279 9.61877 10.8917 9.62531 10.8564L10.3174 7.10828C10.3281 7.04993 10.383 7.0072 10.4471 7.0072H11.3594C11.3983 7.0072 11.4351 7.02301 11.4601 7.05035C11.4851 7.07764 11.4957 7.11383 11.4893 7.14911L10.7965 10.8972ZM13.8735 8.62555C14.5262 8.89795 14.8297 9.23004 14.8252 9.66913C14.8167 10.4677 14.04 10.9838 12.8464 10.9839H12.845C12.4287 10.9798 11.9946 10.9172 11.6837 10.8167C11.623 10.7971 11.5865 10.7399 11.5974 10.6814L11.7104 10.0725C11.7172 10.036 11.7415 10.0044 11.7767 9.98663C11.8118 9.96875 11.8538 9.96655 11.8908 9.98077C12.2437 10.1162 12.4931 10.1806 12.9559 10.1806C13.2811 10.1806 13.6325 10.0631 13.6356 9.80499C13.6376 9.63641 13.4891 9.51599 13.0469 9.32782C12.6157 9.14368 12.0438 8.83508 12.0508 8.2818C12.0571 7.53461 12.8472 7.01245 13.9722 7.01245C14.3691 7.01245 14.686 7.08136 14.8819 7.13916C14.9443 7.15765 14.9826 7.21564 14.9716 7.27533L14.8651 7.85352C14.8584 7.88953 14.8347 7.92072 14.8004 7.93878C14.7661 7.95685 14.7249 7.95972 14.6879 7.94666C14.5294 7.89044 14.2772 7.81573 13.9201 7.81573C13.908 7.81573 13.8957 7.81586 13.8854 7.81604C13.4554 7.81604 13.2316 7.98175 13.2316 8.14551C13.2292 8.32758 13.4741 8.44647 13.8735 8.62555ZM18.9709 10.9545C18.946 10.9832 18.9082 10.9999 18.8683 10.9999H18.0443C17.9824 10.9999 17.9288 10.9601 17.9156 10.9043C17.8882 10.7887 17.8217 10.5081 17.7949 10.4022C17.7039 10.4022 17.324 10.4017 16.9664 10.4014H16.9489C16.6377 10.4009 16.3475 10.4006 16.2848 10.4006C16.2602 10.4587 16.1857 10.6389 16.0695 10.9216C16.05 10.9688 16.001 11 15.9463 11H15.0014C14.9568 11 14.9153 10.9792 14.8911 10.9448C14.8668 10.9103 14.8629 10.867 14.8809 10.8293L16.5496 7.34229C16.6605 7.11023 16.8452 7.01123 17.1672 7.01123H17.9722C18.0341 7.01123 18.0874 7.05084 18.1008 7.10651L18.9969 10.8522C19.0055 10.8882 18.9959 10.9258 18.9709 10.9545Z" fill="#666666"/>
<path d="M17.251 8.08716L16.624 9.5838H17.6036L17.3307 8.43195L17.251 8.08716Z" fill="#666666"/>
</svg>
