<svg width="24" height="18" viewBox="0 0 24 18" fill="none" xmlns="http://www.w3.org/2000/svg">
<path d="M8.07202 8.84912C8.02478 8.84912 7.96387 8.85815 7.88831 8.87427C7.8125 8.89142 7.74469 8.92694 7.6839 8.98035L7.35156 10.3608C7.37158 10.3644 7.38934 10.3677 7.40442 10.3709C7.41925 10.3743 7.43561 10.3768 7.4519 10.3784C7.46918 10.3804 7.48889 10.3813 7.5127 10.3813C7.53656 10.3813 7.56635 10.3814 7.60321 10.3814C7.72083 10.3814 7.8316 10.3525 7.93573 10.2957C8.0401 10.2388 8.13019 10.162 8.20569 10.0664C8.28113 9.9704 8.34088 9.86218 8.3844 9.74127C8.42798 9.62042 8.45001 9.49426 8.45001 9.36304C8.45001 9.20184 8.42303 9.07611 8.36938 8.98523C8.31567 8.89471 8.21631 8.84912 8.07202 8.84912Z" fill="#666666"/>
<path d="M16.3731 8.84448C16.2626 8.84448 16.1649 8.87659 16.0812 8.94C15.9971 9.00415 15.9266 9.08478 15.8698 9.18201C15.8123 9.27972 15.7697 9.38623 15.7408 9.50201C15.7123 9.61804 15.6982 9.72772 15.6982 9.83191C15.6982 10.0001 15.7254 10.1311 15.7787 10.2253C15.8328 10.3191 15.9299 10.3663 16.071 10.3663C16.182 10.3663 16.2792 10.3344 16.3634 10.2703C16.4469 10.2067 16.5175 10.126 16.5748 10.0286C16.632 9.93134 16.6749 9.82452 16.7037 9.70856C16.7319 9.5929 16.7463 9.48261 16.7463 9.37854C16.7463 9.21082 16.7193 9.07953 16.6655 8.98541C16.6118 8.89166 16.5142 8.84448 16.3731 8.84448Z" fill="#666666"/>
<path d="M5.38226 8.71466C5.42212 8.44849 5.21942 8.30536 4.94232 8.20996L5.03223 7.84937L4.81274 7.79468L4.72522 8.14575C4.66754 8.13135 4.60828 8.1178 4.54938 8.10437L4.63751 7.75098L4.41821 7.69629L4.32825 8.0567C4.28046 8.04584 4.23358 8.0351 4.18811 8.0238L4.18835 8.02264L3.88568 7.94708L3.82727 8.18152C3.82727 8.18152 3.99011 8.21881 3.98669 8.22113C4.07556 8.24329 4.09161 8.30212 4.08893 8.34875L3.98657 8.75952C3.99268 8.76111 4.00061 8.76331 4.0094 8.76685C4.00208 8.76501 3.99426 8.763 3.98621 8.76111L3.84265 9.33649C3.83179 9.36346 3.8042 9.40399 3.74207 9.38861C3.74426 9.39178 3.58258 9.34882 3.58258 9.34882L3.47363 9.60004L3.75922 9.6712C3.81232 9.68451 3.86444 9.69849 3.91565 9.71161L3.82483 10.0763L4.04407 10.131L4.13403 9.7702C4.19391 9.78644 4.25201 9.80145 4.3089 9.81555L4.2193 10.1747L4.43872 10.2294L4.5296 9.86536C4.90381 9.93622 5.18524 9.90765 5.30371 9.56915C5.39917 9.29663 5.29895 9.1394 5.10205 9.03687C5.24542 9.00378 5.35345 8.90948 5.38226 8.71466ZM4.20532 9.50604L4.32587 9.02295C4.47461 9.06006 4.95172 9.13354 4.8808 9.41779C4.81299 9.69037 4.35413 9.54303 4.20532 9.50604ZM4.38098 8.80176L4.49023 8.36359C4.61414 8.39447 5.01312 8.45209 4.94873 8.71069C4.88684 8.95862 4.50488 8.83264 4.38098 8.80176Z" fill="#666666"/>
<path d="M22 0H2C0.897461 0 0 0.896973 0 2V16C0 17.103 0.897461 18 2 18H22C23.1025 18 24 17.103 24 16V2C24 0.896973 23.1025 0 22 0ZM18.3013 7.38092C18.3298 7.31873 18.3676 7.26514 18.4148 7.2196C18.4617 7.17444 18.5167 7.13837 18.5786 7.11115C18.6405 7.08441 18.7068 7.07104 18.7773 7.07104C18.8815 7.07104 18.9758 7.10205 19.0596 7.16412C19.1436 7.2265 19.1859 7.32153 19.1859 7.44891C19.1859 7.51959 19.1708 7.58588 19.1427 7.64813C19.1145 7.71033 19.0766 7.76392 19.0296 7.80945C18.9824 7.85468 18.928 7.89062 18.866 7.91754C18.8035 7.94476 18.7373 7.95764 18.6665 7.95764C18.5625 7.95764 18.4682 7.92664 18.3846 7.86456C18.3006 7.80286 18.2584 7.70782 18.2584 7.57977C18.2584 7.50934 18.2729 7.4433 18.3013 7.38092ZM10.0027 7.38092C10.0316 7.31873 10.0692 7.26514 10.1164 7.2196C10.1635 7.17444 10.218 7.13837 10.28 7.11115C10.3423 7.08441 10.4087 7.07104 10.4794 7.07104C10.5834 7.07104 10.6772 7.10205 10.7613 7.16412C10.845 7.2265 10.8872 7.32153 10.8872 7.44891C10.8872 7.51959 10.8729 7.58588 10.8443 7.64813C10.8159 7.71033 10.7783 7.76392 10.7311 7.80945C10.6843 7.85468 10.6293 7.89062 10.5674 7.91754C10.5051 7.94476 10.439 7.95764 10.3685 7.95764C10.2645 7.95764 10.17 7.92664 10.0863 7.86456C10.0019 7.80286 9.96008 7.70782 9.96008 7.57977C9.96008 7.50934 9.97437 7.4433 10.0027 7.38092ZM6.44031 9.48383C6.17316 10.5552 5.08777 11.2073 4.01605 10.9401C2.94476 10.673 2.2926 9.58777 2.55994 8.51636C2.82697 7.44482 3.91229 6.79272 4.9837 7.05981C6.05536 7.32697 6.70746 8.41229 6.44031 9.48383ZM9.06757 9.96552C8.98175 10.1724 8.86536 10.3518 8.71729 10.5049C8.56934 10.6578 8.39465 10.7783 8.19318 10.8673C7.992 10.9564 7.77332 11.0009 7.53851 11.0009C7.50818 11.0009 7.45477 11.0001 7.37933 10.9985C7.30396 10.9969 7.21729 10.9892 7.12024 10.9761C7.02252 10.9624 6.91925 10.9423 6.81018 10.9153C6.70117 10.8887 6.59766 10.8516 6.50018 10.8044L7.37195 7.14136L8.15277 7.02032L7.84064 8.32025C7.90747 8.2901 7.97479 8.26678 8.04199 8.24982C8.10925 8.23309 8.1814 8.22437 8.25854 8.22437C8.42004 8.22437 8.55951 8.2533 8.6767 8.31012C8.79449 8.36743 8.89166 8.44476 8.96967 8.54193C9.04657 8.63959 9.10376 8.75378 9.14075 8.88458C9.17743 9.01581 9.19586 9.15686 9.19586 9.30786C9.19586 9.53979 9.15338 9.75897 9.06757 9.96552ZM10.0056 10.9308H9.25983L9.88965 8.28052H10.6406L10.0056 10.9308ZM11.5057 10.2125C11.5258 10.2614 11.5618 10.299 11.6141 10.3256C11.6661 10.3527 11.7405 10.3663 11.8383 10.3663C11.9187 10.3663 11.9971 10.3586 12.0729 10.3435C12.1482 10.3286 12.2245 10.3077 12.3018 10.2806L12.3574 10.8552C12.2567 10.8922 12.1475 10.924 12.0299 10.9507C11.9122 10.9778 11.7727 10.9909 11.6116 10.9909C11.3799 10.9909 11.2003 10.9565 11.0723 10.888C10.9445 10.819 10.8541 10.7247 10.8 10.6054C10.7468 10.4865 10.7229 10.3494 10.7296 10.195C10.7365 10.0402 10.7598 9.87756 10.8 9.70618L11.2941 7.62024L12.0753 7.49921L11.8835 8.2804H12.72L12.569 8.89502H11.7374L11.5159 9.82202C11.4955 9.89929 11.4839 9.9715 11.4807 10.0386C11.4771 10.106 11.4856 10.1638 11.5057 10.2125ZM13.5742 10.2076C13.6479 10.3135 13.7843 10.3663 13.9822 10.3663C14.0799 10.3663 14.1741 10.3561 14.2644 10.3361C14.3553 10.316 14.4357 10.2906 14.5064 10.2606L14.5621 10.8601C14.4678 10.8967 14.3638 10.9297 14.2496 10.9587C14.1353 10.9866 13.9991 11.0011 13.8413 11.0011C13.6329 11.0011 13.4566 10.9706 13.3123 10.9106C13.168 10.8496 13.0487 10.7687 12.9547 10.6661C12.8603 10.5634 12.7925 10.4434 12.7505 10.3056C12.7086 10.168 12.6872 10.0234 12.6872 9.8725C12.6872 9.64423 12.7241 9.42896 12.798 9.22742C12.8717 9.0257 12.9779 8.8493 13.1157 8.69794C13.2531 8.5473 13.4203 8.42798 13.6172 8.34039C13.8133 8.2533 14.0327 8.20935 14.2745 8.20935C14.4259 8.20935 14.5611 8.22369 14.6801 8.25238C14.7996 8.28131 14.9076 8.31866 15.0054 8.3656L14.7482 8.95044C14.681 8.92316 14.6112 8.89917 14.5391 8.87738C14.4669 8.85516 14.3788 8.84448 14.2746 8.84448C14.0257 8.84448 13.8289 8.9303 13.6824 9.10132C13.5365 9.27246 13.463 9.50287 13.463 9.79187C13.463 9.96313 13.5 10.1016 13.5742 10.2076ZM17.3961 9.90796C17.3325 10.1089 17.2383 10.2905 17.1138 10.452C16.9896 10.6131 16.8344 10.7449 16.6478 10.8474C16.4615 10.9497 16.2455 11.0011 16.0002 11.0011C15.8223 11.0011 15.6677 10.974 15.5365 10.9203C15.4057 10.8666 15.2974 10.7913 15.2117 10.6936C15.1259 10.5964 15.0617 10.4813 15.0177 10.3485C14.9738 10.2159 14.9526 10.069 14.9526 9.90802C14.9526 9.70612 14.985 9.50427 15.0505 9.30304C15.1157 9.10132 15.2125 8.9201 15.3405 8.75897C15.4676 8.59766 15.6243 8.46576 15.8088 8.36292C15.9932 8.26074 16.2052 8.20935 16.4434 8.20935C16.6182 8.20935 16.772 8.23657 16.9049 8.29022C17.0372 8.34381 17.1462 8.4198 17.2324 8.51697C17.3176 8.61462 17.3824 8.72931 17.426 8.86224C17.4698 8.99463 17.4915 9.14191 17.4915 9.30298C17.4915 9.50421 17.4595 9.70605 17.3961 9.90796ZM17.5577 10.9308L18.1876 8.28052H18.9388L18.3042 10.9308H17.5577ZM21.4367 9.49957L21.0936 10.9305H20.3429L20.6754 9.52966C20.6957 9.4422 20.7116 9.35767 20.7234 9.27502C20.7352 9.19318 20.7346 9.12097 20.7207 9.05853C20.7075 8.99677 20.6762 8.94629 20.6277 8.9071C20.5786 8.86865 20.5042 8.84924 20.4033 8.84924C20.3061 8.84924 20.2072 8.85974 20.1062 8.87988L19.6173 10.9305H18.8663L19.4764 8.40106C19.533 8.38452 19.5962 8.36462 19.6649 8.34296C19.7339 8.32129 19.811 8.30115 19.8972 8.28296C19.9823 8.26422 20.0784 8.24908 20.1841 8.2373C20.2899 8.22528 20.4103 8.21942 20.5441 8.21942C20.9374 8.21942 21.2086 8.33398 21.3583 8.56238C21.5079 8.79077 21.5338 9.10339 21.4367 9.49957Z" fill="#666666"/>
</svg>
