<svg width="24" height="24" viewBox="0 0 24 24" fill="#FFFFFF" xmlns="http://www.w3.org/2000/svg">
<path d="M22 3H2C0.896973 3 0 3.89697 0 5V19C0 20.103 0.896973 21 2 21H22C23.103 21 24 20.103 24 19V5C24 3.89697 23.103 3 22 3ZM5.00201 10.1005C5.01306 10.0424 5.06781 10 5.13171 10H5.13196L6.36926 10.0018C6.37091 10.0018 6.37268 10.0019 6.37439 10.0019C6.55548 10.0087 6.80542 10.0493 6.88434 10.3229C6.88495 10.3249 6.88544 10.3269 6.88593 10.329L7.10547 11.2867C7.11816 11.3423 7.0874 11.3987 7.03137 11.4224C7.01379 11.4298 6.99512 11.4333 6.97662 11.4333C6.93646 11.4333 6.89728 11.4163 6.87177 11.3853C6.45862 10.8838 5.84155 10.4863 5.0871 10.2358C5.02679 10.2158 4.99097 10.1586 5.00201 10.1005ZM7.91632 13.994L6.85425 13.9954H6.85413C6.79559 13.9954 6.74414 13.9598 6.72772 13.908L5.80548 11.0008C5.78949 10.9503 5.81049 10.8961 5.85748 10.8664C5.90448 10.8367 5.96686 10.8382 6.01215 10.8704C6.67615 11.3412 7.15204 11.9346 7.3291 12.3138C7.3316 12.3188 7.33362 12.3242 7.33514 12.3295L7.45581 12.7325L8.57776 10.0881C8.59753 10.0416 8.64618 10.0109 8.70032 10.0109L9.6593 10.0104H9.65942C9.70374 10.0104 9.74506 10.031 9.76941 10.0651C9.79376 10.0992 9.79791 10.1425 9.7804 10.18L8.03711 13.9205C8.0163 13.9651 7.96887 13.994 7.91632 13.994ZM10.7965 13.8972C10.7858 13.9556 10.7309 13.9984 10.6667 13.9984H9.75507C9.71625 13.9984 9.67944 13.9826 9.65442 13.9552C9.62946 13.9279 9.61877 13.8917 9.62531 13.8564L10.3174 10.1083C10.3281 10.0499 10.383 10.0072 10.4471 10.0072H11.3594C11.3983 10.0072 11.4351 10.023 11.4601 10.0504C11.4851 10.0776 11.4957 10.1138 11.4893 10.1491L10.7965 13.8972ZM13.8735 11.6255C14.5262 11.8979 14.8297 12.23 14.8252 12.6691C14.8167 13.4677 14.04 13.9838 12.8464 13.9839H12.845C12.4287 13.9798 11.9946 13.9172 11.6837 13.8167C11.623 13.7971 11.5865 13.7399 11.5974 13.6814L11.7104 13.0725C11.7172 13.036 11.7415 13.0044 11.7767 12.9866C11.8118 12.9688 11.8538 12.9666 11.8908 12.9808C12.2437 13.1162 12.4931 13.1806 12.9559 13.1806C13.2811 13.1806 13.6325 13.0631 13.6356 12.805C13.6376 12.6364 13.4891 12.516 13.0469 12.3278C12.6157 12.1437 12.0438 11.8351 12.0508 11.2818C12.0571 10.5346 12.8472 10.0125 13.9722 10.0125C14.3691 10.0125 14.686 10.0814 14.8819 10.1392C14.9443 10.1577 14.9826 10.2156 14.9716 10.2753L14.8651 10.8535C14.8584 10.8895 14.8347 10.9207 14.8004 10.9388C14.7661 10.9568 14.7249 10.9597 14.6879 10.9467C14.5294 10.8904 14.2772 10.8157 13.9201 10.8157C13.908 10.8157 13.8957 10.8159 13.8854 10.816C13.4554 10.816 13.2316 10.9818 13.2316 11.1455C13.2292 11.3276 13.4741 11.4465 13.8735 11.6255ZM18.9709 13.9545C18.946 13.9832 18.9082 13.9999 18.8683 13.9999H18.0443C17.9824 13.9999 17.9288 13.9601 17.9156 13.9043C17.8882 13.7887 17.8217 13.5081 17.7949 13.4022C17.7039 13.4022 17.324 13.4017 16.9664 13.4014H16.9489C16.6377 13.4009 16.3475 13.4006 16.2848 13.4006C16.2602 13.4587 16.1857 13.6389 16.0695 13.9216C16.05 13.9688 16.001 14 15.9463 14H15.0014C14.9568 14 14.9153 13.9792 14.8911 13.9448C14.8668 13.9103 14.8629 13.867 14.8809 13.8293L16.5496 10.3423C16.6605 10.1102 16.8452 10.0112 17.1672 10.0112H17.9722C18.0341 10.0112 18.0874 10.0508 18.1008 10.1065L18.9969 13.8522C19.0055 13.8882 18.9959 13.9258 18.9709 13.9545Z" fill="#666666"/>
<path d="M17.251 11.0872L16.624 12.5838H17.6036L17.3307 11.4319L17.251 11.0872Z" fill="#666666"/>
</svg>
