<svg width="24" height="24" viewBox="0 0 24 24" fill="#FFFFFF" xmlns="http://www.w3.org/2000/svg">
<path d="M12.038 16.7518C11.8121 16.7518 11.684 16.8953 11.6504 17.1058H12.4072C12.3737 16.88 12.2424 16.7518 12.038 16.7518Z" fill="#666666"/>
<path d="M7.3634 16.7671C7.08875 16.7671 6.9209 16.9777 6.9209 17.2339C6.9209 17.4903 7.08875 17.7009 7.3634 17.7009C7.62579 17.7009 7.8028 17.4995 7.8028 17.2339C7.8028 16.9685 7.62579 16.7671 7.3634 16.7671Z" fill="#666666"/>
<path d="M16.3166 16.7671C16.0419 16.7671 15.874 16.9777 15.874 17.2339C15.874 17.4903 16.0419 17.7009 16.3166 17.7009C16.579 17.7009 16.756 17.4995 16.756 17.2339C16.756 16.9685 16.579 16.7671 16.3166 16.7671Z" fill="#666666"/>
<path d="M22 3H2C0.896973 3 0 3.89697 0 5V19C0 20.103 0.896973 21 2 21H22C23.103 21 24 20.103 24 19V5C24 3.89697 23.103 3 22 3ZM6.31317 17.9634H5.99274V17.1516C5.99274 16.9044 5.88898 16.7671 5.67236 16.7671C5.46179 16.7671 5.31531 16.9014 5.31531 17.1547V17.9634H4.99487V17.1516C4.99487 16.9044 4.88806 16.7671 4.67749 16.7671C4.46082 16.7671 4.32043 16.9014 4.32043 17.1547V17.9634H4V16.5046H4.31738V16.6847C4.4364 16.5138 4.58899 16.468 4.74463 16.468C4.96741 16.468 5.1261 16.5657 5.22681 16.7274C5.36108 16.5229 5.55334 16.465 5.73944 16.468C6.09344 16.4711 6.31317 16.703 6.31317 17.0479V17.9634ZM8.1015 17.2339V17.9634H7.78412V17.7863C7.68341 17.9175 7.53082 18 7.3233 18C6.91437 18 6.59393 17.6795 6.59393 17.2339C6.59393 16.7885 6.91437 16.468 7.3233 16.468C7.53082 16.468 7.68341 16.5504 7.78412 16.6816V16.5046H8.1015V17.2339ZM9.04138 18C8.80334 18 8.58362 17.9389 8.40967 17.8107L8.5592 17.5635C8.66602 17.646 8.82471 17.7162 9.04443 17.7162C9.26111 17.7162 9.37708 17.652 9.37708 17.5391C9.37708 17.4567 9.29468 17.4109 9.12073 17.3866L8.97119 17.3652C8.64465 17.3195 8.46771 17.173 8.46771 16.9349C8.46771 16.645 8.70569 16.468 9.07495 16.468C9.30688 16.468 9.51746 16.5199 9.67004 16.6206L9.53271 16.877C9.44421 16.822 9.26416 16.7518 9.078 16.7518C8.90405 16.7518 8.80029 16.8159 8.80029 16.9227C8.80029 17.0204 8.91016 17.0479 9.04749 17.0662L9.19702 17.0875C9.5144 17.1333 9.70667 17.2676 9.70667 17.5239C9.70667 17.8016 9.46252 18 9.04138 18ZM10.7229 18C10.3475 18 10.2163 17.7985 10.2163 17.4598V16.7946H9.92029V16.5046H10.2163V16.0621H10.5367V16.5046H11.0555V16.7946H10.5367V17.4537C10.5367 17.6002 10.5886 17.6979 10.7473 17.6979C10.8297 17.6979 10.9334 17.6704 11.0281 17.6155L11.1196 17.8871C11.0189 17.9572 10.8602 18 10.7229 18ZM12.7309 17.356H11.6475C11.6933 17.6185 11.8795 17.7131 12.0839 17.7131C12.2304 17.7131 12.386 17.6582 12.5081 17.5605L12.6638 17.7955C12.4868 17.945 12.2853 18 12.0656 18C11.6292 18 11.3179 17.6979 11.3179 17.2339C11.3179 16.7793 11.617 16.468 12.0443 16.468C12.4532 16.468 12.7339 16.7793 12.737 17.2339C12.737 17.2767 12.7339 17.3164 12.7309 17.356ZM13.8905 16.8068C13.8234 16.7793 13.7562 16.7701 13.6922 16.7701C13.4846 16.7701 13.3809 16.9044 13.3809 17.1455V17.9634H13.0635V16.5046H13.3779V16.6816C13.4602 16.5535 13.5793 16.468 13.7623 16.468C13.8264 16.468 13.918 16.4802 13.9882 16.5077L13.8905 16.8068ZM14.8518 17.7009C14.9891 17.7009 15.1143 17.6552 15.2333 17.5696L15.3859 17.826C15.2272 17.9512 15.0807 18 14.861 18C14.391 18 14.0828 17.6765 14.0828 17.2339C14.0828 16.7915 14.391 16.468 14.861 16.468C15.0807 16.468 15.2272 16.5168 15.3859 16.642L15.2333 16.8983C15.1143 16.8129 14.9891 16.7671 14.8518 16.7671C14.5985 16.7701 14.4124 16.9532 14.4124 17.2339C14.4124 17.5147 14.5985 17.6979 14.8518 17.7009ZM17.0551 17.2339V17.9634H16.7377V17.7863C16.637 17.9175 16.4844 18 16.2769 18C15.868 18 15.5476 17.6795 15.5476 17.2339C15.5476 16.7885 15.868 16.468 16.2769 16.468C16.4844 16.468 16.637 16.5504 16.7377 16.6816V16.5046H17.0551V17.2339ZM18.3002 16.8068C18.2331 16.7793 18.166 16.7701 18.1018 16.7701C17.8943 16.7701 17.7906 16.9044 17.7906 17.1455V17.9634H17.4732V16.5046H17.7875V16.6816C17.8699 16.5535 17.989 16.468 18.1721 16.468C18.2361 16.468 18.3277 16.4802 18.3979 16.5077L18.3002 16.8068ZM20 17.2339V17.9634H19.6826V17.7863C19.5819 17.9175 19.4293 18 19.2218 18C18.8129 18 18.4924 17.6795 18.4924 17.2339C18.4924 16.7885 18.8129 16.468 19.2218 16.468C19.4293 16.468 19.5819 16.5504 19.6826 16.6816V15.9188H20V17.2339ZM15.25 15.5C13.9903 15.5 12.851 14.9987 12 14.1957C11.149 14.9987 10.0097 15.5 8.75 15.5C6.13086 15.5 4 13.3691 4 10.75C4 8.13086 6.13086 6 8.75 6C10.0097 6 11.149 6.50128 12 7.30432C12.851 6.50128 13.9903 6 15.25 6C17.8691 6 20 8.13086 20 10.75C20 13.3691 17.8691 15.5 15.25 15.5Z" fill="#666666"/>
<path d="M19.2618 16.7671C18.9871 16.7671 18.8193 16.9777 18.8193 17.2339C18.8193 17.4903 18.9871 17.7009 19.2618 17.7009C19.5242 17.7009 19.7012 17.4995 19.7012 17.2339C19.7012 16.9685 19.5242 16.7671 19.2618 16.7671Z" fill="#666666"/>
<path d="M12 7.30432C11.0815 8.17102 10.5 9.39056 10.5 10.75C10.5 12.1094 11.0815 13.329 12 14.1957C12.9185 13.329 13.5 12.1094 13.5 10.75C13.5 9.39056 12.9185 8.17102 12 7.30432Z" fill="#666666"/>
</svg>
