<svg width="30" height="30" viewBox="0 0 30 30" fill="none" xmlns="http://www.w3.org/2000/svg">
<path d="M28.7574 3.37891H1.23648C0.581514 3.37891 0 3.89309 0 4.60927V25.3846C0 26.0335 0.520302 26.6211 1.23648 26.6211H28.7635C29.4797 26.6211 30 26.0396 30 25.3846V4.60927C29.9939 3.96042 29.4736 3.37891 28.7574 3.37891ZM2.46684 7.59641L9.73883 14.8684L2.46684 22.1404V7.59641ZM14.9969 16.6191L4.28484 5.90696H25.709L14.9969 16.6191ZM11.4895 16.6191L14.0849 19.2144C14.6297 19.7592 15.3642 19.7531 15.9029 19.2144L18.4677 16.6497L25.8988 24.0808H4.02775L11.4895 16.6191ZM20.2244 14.899L27.527 7.59641V22.2016L20.2244 14.899Z" fill="#CCCCCC"/>
</svg>
