<svg width="50" height="50" viewBox="0 0 50 50" fill="none" xmlns="http://www.w3.org/2000/svg">
<path d="M45.6055 6.34766H43.5547V4.39453C43.5547 1.97139 41.5833 0 39.1602 0H4.39453C1.97139 0 0 1.97139 0 4.39453V28.125C0 30.5481 1.97139 32.5195 4.39453 32.5195H6.44531V34.4727C6.44531 36.8958 8.4167 38.8672 10.8398 38.8672H25.9104C27.4633 43.9624 31.5357 48.3267 37.1952 49.9437C37.4577 50.0187 37.7366 50.0189 38.0001 49.9437C45.0233 47.937 50 41.5144 50 34.0351C50 33.0802 50 11.8176 50 10.7422C50 8.31904 48.0286 6.34766 45.6055 6.34766ZM47.0703 10.7422V14.9414H26.4648V13.2812C26.4648 12.4723 25.809 11.8164 25 11.8164H14.0625C13.2535 11.8164 12.5977 12.4723 12.5977 13.2812V14.9414H9.375V10.7422C9.375 9.93447 10.0321 9.27734 10.8398 9.27734H45.6055C46.4132 9.27734 47.0703 9.93447 47.0703 10.7422ZM15.5273 14.7461H23.5352V18.0664H15.5273V14.7461ZM4.39453 29.5898C3.58682 29.5898 2.92969 28.9327 2.92969 28.125V4.39453C2.92969 3.58682 3.58682 2.92969 4.39453 2.92969H39.1602C39.9679 2.92969 40.625 3.58682 40.625 4.39453V6.34766H10.8398C8.4167 6.34766 6.44531 8.31904 6.44531 10.7422V29.5898H4.39453ZM10.8398 35.9375C10.0321 35.9375 9.375 35.2804 9.375 34.4727V17.8711H12.5977V19.5312C12.5977 20.3402 13.2535 20.9961 14.0625 20.9961H25C25.809 20.9961 26.4648 20.3402 26.4648 19.5312V17.8711H47.0703V24.3571C43.947 24.0876 40.9569 22.8653 38.5354 20.8474C37.9923 20.3947 37.2031 20.3947 36.66 20.8474C33.9832 23.0779 30.5576 24.4141 26.6602 24.4141C25.8512 24.4141 25.1953 25.0699 25.1953 25.8789V29.7852H23.5352C22.7262 29.7852 22.0703 30.441 22.0703 31.25C22.0703 32.059 22.7262 32.7148 23.5352 32.7148H25.1953C25.1953 34.0795 25.1738 34.7982 25.3034 35.9375H10.8398ZM47.0703 34.0351C47.0703 39.9413 43.1959 45.2148 37.5977 47.005C31.9994 45.2149 28.125 39.9414 28.125 34.0351V27.2961C31.539 27.0488 34.8296 25.8449 37.5977 23.8289C40.3657 25.8449 43.6563 27.0488 47.0703 27.2961V34.0351Z" fill="#CCCCCC"/>
</svg>
