<svg width="50" height="50" viewBox="0 0 50 50" fill="none" xmlns="http://www.w3.org/2000/svg">
<g clip-path="url(#clip0_9_38)">
<path d="M24.1539 16.8056C22.9828 17.942 21.6557 19.2303 20.9824 20.742C20.7806 21.1948 20.8218 21.7194 21.0923 22.1355C21.3623 22.5517 21.8247 22.8027 22.3206 22.8027H27.4117C28.2208 22.8027 28.8765 22.1466 28.8765 21.3379C28.8765 20.5288 28.2208 19.873 27.4117 19.873H25.2201C25.5402 19.5427 25.874 19.2184 26.1944 18.9079C27.6337 17.511 28.8769 16.3044 28.8769 14.7942C28.8769 12.5599 27.0592 10.7422 24.8253 10.7422C23.1926 10.7422 21.7282 11.7138 21.0942 13.2179C20.7798 13.9633 21.1293 14.8224 21.8747 15.1367C22.6204 15.4514 23.4795 15.1016 23.7934 14.3562C23.9689 13.9404 24.3737 13.6719 24.8253 13.6719C25.4341 13.6719 25.9316 14.1598 25.9468 14.7655C25.8343 15.1745 24.8246 16.1545 24.1539 16.8056Z" fill="#CCCCCC"/>
<path d="M2.56422 16.4059L3.18449 15.7853V19.8613H2.16024C1.35114 19.8613 0.695397 20.517 0.695397 21.3261C0.695397 22.1352 1.35114 22.791 2.16024 22.791H7.13766C7.94637 22.791 8.6025 22.1352 8.6025 21.3261C8.6025 20.517 7.94637 19.8613 7.13766 19.8613H6.11417V12.2464C6.11417 11.654 5.75712 11.1195 5.20971 10.8933C4.6623 10.6663 4.03211 10.7922 3.61326 11.2111L0.491692 14.3353C-0.0801314 14.9075 -0.0797499 15.8353 0.492836 16.4071C1.06504 16.9785 1.99239 16.9785 2.56422 16.4059Z" fill="#CCCCCC"/>
<path d="M45.5585 25.1045C44.3721 25.1045 43.2567 25.5668 42.4179 26.4061C41.579 27.2453 41.1171 28.3611 41.1171 29.5475C41.1171 31.9973 43.1095 33.9904 45.5585 33.9908C46.7449 33.9908 47.8603 33.5285 48.6992 32.6893C49.538 31.85 50 30.7342 50 29.5479C50 27.0977 48.0076 25.1045 45.5585 25.1045ZM46.6274 30.6183C46.3417 30.9036 45.9621 31.0611 45.5585 31.0611C44.725 31.0611 44.0468 30.3821 44.0468 29.5479C44.0468 29.1435 44.2043 28.7632 44.49 28.4774C44.7754 28.1917 45.1549 28.0346 45.5585 28.0346C46.3924 28.0346 47.0703 28.7132 47.0703 29.5479C47.0703 29.9522 46.9131 30.3322 46.6274 30.6183Z" fill="#CCCCCC"/>
<path d="M24.8879 33.9908C26.0742 33.9908 27.1897 33.5285 28.0285 32.6892C28.8674 31.85 29.3289 30.7346 29.3289 29.5478C29.3289 27.098 27.3365 25.1049 24.8879 25.1049C24.8875 25.1049 24.8879 25.1049 24.8875 25.1049C23.7011 25.1049 22.5857 25.5668 21.7468 26.4064C20.9084 27.2453 20.4464 28.3611 20.4464 29.5478C20.4464 31.9976 22.4388 33.9908 24.8879 33.9908ZM23.819 28.4774C24.1043 28.1917 24.4843 28.0342 24.8879 28.0342C25.7214 28.0342 26.3992 28.7132 26.3992 29.5478C26.3992 29.9522 26.2421 30.3321 25.9564 30.6179C25.6706 30.9036 25.2915 31.0611 24.8879 31.0611C24.054 31.0611 23.3761 30.3821 23.3761 29.5475C23.3761 29.1431 23.5333 28.7632 23.819 28.4774Z" fill="#CCCCCC"/>
<path d="M13.4102 29.6776C13.4102 28.9139 12.7915 28.2952 12.0285 28.2952C11.2652 28.2952 10.6469 28.9139 10.6469 29.6776C10.6469 30.4409 11.2652 31.0601 12.0285 31.0601C12.7915 31.0601 13.4102 30.4409 13.4102 29.6776Z" fill="#CCCCCC"/>
<path d="M18.7325 29.6776C18.7325 28.9139 18.1141 28.2952 17.3512 28.2952C16.5878 28.2952 15.9695 28.9139 15.9695 29.6776C15.9695 30.4409 16.5878 31.0601 17.3512 31.0601C18.1141 31.0601 18.7325 30.4409 18.7325 29.6776Z" fill="#CCCCCC"/>
<path d="M33.7864 29.6776C33.7864 28.9139 33.168 28.2952 32.4047 28.2952C31.6418 28.2952 31.023 28.9139 31.023 29.6776C31.023 30.4409 31.6418 31.0601 32.4047 31.0601C33.168 31.0601 33.7864 30.4409 33.7864 29.6776Z" fill="#CCCCCC"/>
<path d="M39.1091 29.6776C39.1091 28.9139 38.4907 28.2952 37.7274 28.2952C36.9644 28.2952 36.3457 28.9139 36.3457 29.6776C36.3457 30.4409 36.9644 31.0601 37.7274 31.0601C38.4907 31.0601 39.1091 30.4409 39.1091 29.6776Z" fill="#CCCCCC"/>
<path d="M28.664 36.2892H21.3799C20.5708 36.2892 19.915 36.9449 19.915 37.754C19.915 38.5631 20.5708 39.2189 21.3799 39.2189H28.664C29.4731 39.2189 30.1289 38.5631 30.1289 37.754C30.1289 36.9449 29.4731 36.2892 28.664 36.2892Z" fill="#CCCCCC"/>
<path d="M7.54585 25.2941L3.48663 29.3652L2.50092 28.3791C1.92909 27.8065 1.00174 27.8065 0.429535 28.3783C-0.143051 28.9501 -0.143051 29.8775 0.428772 30.4497L2.45171 32.4738C2.72636 32.7488 3.09906 32.9033 3.48778 32.9033H3.48854C3.87726 32.9033 4.25034 32.7484 4.52499 32.473L9.62029 27.3628C10.1917 26.7899 10.1902 25.8625 9.61723 25.2914C9.04465 24.72 8.11691 24.7215 7.54585 25.2941Z" fill="#CCCCCC"/>
<path d="M45.5158 22.8352C47.7241 22.8352 49.5037 21.0735 49.567 18.8244C49.583 18.2499 49.5025 16.7912 48.407 15.6643C48.2273 15.4793 47.9973 15.2824 47.7093 15.1028L49.1768 13.126C49.5067 12.6816 49.5582 12.0888 49.3095 11.5944C49.0608 11.1 48.5542 10.788 48.0007 10.788H43.6088C42.7997 10.788 42.144 11.4437 42.144 12.2528C42.144 13.0619 42.7997 13.7177 43.6088 13.7177H45.0889L44.0983 15.0517C43.7683 15.4961 43.7168 16.0885 43.9659 16.5833C44.2146 17.0776 44.7208 17.3897 45.2743 17.3897C45.7546 17.3897 46.1021 17.4965 46.3066 17.7067C46.5656 17.9733 46.6472 18.4311 46.6385 18.7424C46.6202 19.3947 46.1269 19.9055 45.5158 19.9055C45.0645 19.9055 44.6598 19.6369 44.4843 19.2215C44.1704 18.4757 43.3109 18.1263 42.5655 18.4406C41.8201 18.755 41.4707 19.614 41.785 20.3594C42.419 21.8636 43.8835 22.8352 45.5158 22.8352Z" fill="#CCCCCC"/>
</g>
<defs>
<clipPath id="clip0_9_38">
<rect width="50" height="50" fill="white"/>
</clipPath>
</defs>
</svg>
