<svg width="50" height="50" viewBox="0 0 50 50" fill="none" xmlns="http://www.w3.org/2000/svg">
<g clip-path="url(#clip0_13_0)">
<path d="M25 11.9141C25.809 11.9141 26.4648 11.2582 26.4648 10.4492C26.4648 9.64021 25.809 8.98438 25 8.98438C24.191 8.98438 23.5352 9.64021 23.5352 10.4492C23.5352 11.2582 24.191 11.9141 25 11.9141Z" fill="#CCCCCC"/>
<path d="M48.5352 41.2107H47.0703V19.2381C47.0703 16.8149 45.0989 14.8435 42.6758 14.8435H36.7147C35.6577 13.4386 34.1079 12.4248 32.3242 12.0612V11.0429C32.3242 6.45408 29.7064 2.18015 25.6551 0.15437C25.2426 -0.0517822 24.7573 -0.0517822 24.3448 0.15437C20.2936 2.18015 17.6758 6.45408 17.6758 11.0429V12.0612C15.8921 12.4248 14.3423 13.4386 13.2853 14.8435H7.32422C4.90107 14.8435 2.92969 16.8149 2.92969 19.2381V41.2107H1.46484C0.655859 41.2107 0 41.8666 0 42.6756C0 46.7141 3.28564 49.9998 7.32422 49.9998H42.6758C46.7144 49.9998 50 46.7141 50 42.6756C50 41.8666 49.3441 41.2107 48.5352 41.2107ZM32.3242 15.0945C34.0294 15.6991 35.2539 17.3283 35.2539 19.2381V21.561L32.3242 18.6313V15.0945ZM31.2386 21.6887L35.683 26.1332C36.1026 26.5529 36.733 26.677 37.2794 26.4508C37.8268 26.224 38.1837 25.6898 38.1837 25.0974V19.2381C38.1837 18.7365 38.1328 18.2467 38.0363 17.7732H42.6758C43.4835 17.7732 44.1406 18.4303 44.1406 19.2381V41.2107H41.1133C41.1133 37.6469 37.9512 34.93 34.4804 35.4039C33.5615 33.7755 31.9039 32.6608 30.023 32.4558L29.4236 25.3791L31.2386 21.6887ZM22.2199 35.1142C22.5421 34.8633 22.7449 34.4891 22.7794 34.0822L23.4163 26.5623H26.5837L27.2206 34.0822C27.2551 34.4891 27.4579 34.8633 27.7801 35.1142C28.1023 35.3652 28.5147 35.4703 28.9177 35.4041C29.1155 35.3716 29.2644 35.3513 29.3945 35.3513C30.7043 35.3513 31.8604 36.2432 32.2059 37.5202C32.3151 37.9241 32.592 38.262 32.9665 38.4486C33.3409 38.6353 33.7774 38.6529 34.1657 38.4969C36.1151 37.7141 38.1836 39.1638 38.1836 41.2107H11.8164C11.8164 39.1686 13.88 37.7122 15.8343 38.497C16.2227 38.6529 16.6591 38.6354 17.0335 38.4487C17.408 38.2621 17.6848 37.9242 17.7941 37.5203C18.1596 36.1696 19.4805 35.1409 21.0823 35.4041C21.4853 35.4701 21.8977 35.3652 22.2199 35.1142ZM21.4935 20.6052H28.5065L27.0177 23.6326H22.9823L21.4935 20.6052ZM20.6055 11.0429C20.6055 7.80916 22.3084 4.78455 25 3.13816C27.6917 4.78455 29.3945 7.80916 29.3945 11.0429C29.3945 11.7537 29.3945 16.948 29.3945 17.6756H20.6055C20.6055 16.948 20.6055 11.7539 20.6055 11.0429ZM14.7461 19.2381C14.7461 17.3283 15.9706 15.6991 17.6758 15.0945V18.6312L14.7461 21.5609V19.2381ZM5.85938 19.2381C5.85938 18.4303 6.5165 17.7635 7.32422 17.7635H11.9638C11.8673 18.2369 11.8164 18.7365 11.8164 19.2381V25.0974C11.8164 25.6899 12.1733 26.2241 12.7207 26.4508C13.2682 26.6774 13.8981 26.5521 14.3171 26.1332L18.7615 21.6887L20.5765 25.3791L19.9771 32.4558C18.0962 32.6609 16.4386 33.7756 15.5197 35.4039C12.045 34.9295 8.88672 37.6516 8.88672 41.2107H5.85938V19.2381ZM42.6758 47.0701H7.32422C5.41445 47.0701 3.78525 45.8358 3.18066 44.1306C4.66279 44.1306 44.1514 44.1306 46.8192 44.1306C46.2147 45.8358 44.5855 47.0701 42.6758 47.0701Z" fill="#CCCCCC"/>
</g>
<defs>
<clipPath id="clip0_13_0">
<rect width="50" height="50" fill="white"/>
</clipPath>
</defs>
</svg>
