<svg width="70" height="70" viewBox="0 0 70 70" fill="none" xmlns="http://www.w3.org/2000/svg">
<g clip-path="url(#clip0_15_397)">
<path d="M67.0844 26.25H61.2787C60.8649 25.0005 60.3624 23.7821 59.7752 22.6041L63.8761 18.5019C63.8764 18.5016 63.8767 18.5013 63.8769 18.5011C65.0158 17.3618 65.0154 15.5151 63.8761 14.3763L55.6262 6.125C55.6254 6.12418 55.6247 6.1235 55.6239 6.12268C54.4842 4.98422 52.6376 4.98531 51.4991 6.125L47.3969 10.2259C46.219 9.63867 45.0006 9.13664 43.751 8.72375V2.91662C43.751 1.3058 42.4452 0 40.8344 0H29.1677C27.5568 0 26.251 1.3058 26.251 2.91662V8.72375C25.0014 9.13664 23.7829 9.63867 22.6051 10.2259L18.5028 6.125C18.502 6.12418 18.5013 6.1235 18.5005 6.12268C17.3608 4.98422 15.5142 4.98531 14.3757 6.125L6.12598 14.3763C4.98738 15.5153 4.98738 17.3615 6.12598 18.5004L10.2269 22.6041C9.63965 23.7821 9.13707 25.0005 8.72336 26.25H2.9176C1.30678 26.25 0.000976562 27.5558 0.000976562 29.1666V40.8332C0.000976562 42.4442 1.30678 43.75 2.9176 43.75H8.72322C9.13707 44.9995 9.63951 46.2179 10.2267 47.3959L6.12598 51.4981C6.1257 51.4984 6.12543 51.4987 6.12516 51.4989C4.98642 52.6382 4.9867 54.4849 6.12598 55.6237L14.3757 63.875C14.3765 63.8758 14.3772 63.8765 14.378 63.8773C15.5177 65.0158 17.3644 65.0147 18.5028 63.875L22.6051 59.7741C23.7829 60.3613 25.0014 60.8632 26.251 61.2762V67.0834C26.251 68.6942 27.5568 70 29.1676 70H40.8342C42.445 70 43.7508 68.6942 43.7508 67.0834V61.2762C45.0004 60.8634 46.2189 60.3613 47.3967 59.7741L51.499 63.875C51.4998 63.8758 51.5005 63.8765 51.5013 63.8773C52.641 65.0158 54.4876 65.0147 55.6261 63.875L63.8758 55.6237C65.0144 54.4847 65.0144 52.6385 63.8758 51.4996L59.775 47.3959C60.3622 46.2179 60.8647 44.9995 61.2785 43.75H67.0841C68.6949 43.75 70.0007 42.4442 70.0007 40.8334V29.1668C70.001 27.5558 68.6952 26.25 67.0844 26.25ZM60.2025 40.8334C59.5509 40.8341 58.9788 41.2668 58.801 41.8936C58.2952 43.6594 57.5939 45.363 56.7097 46.973C56.396 47.5415 56.4958 48.249 56.9547 48.7084L61.8125 53.5618L53.5627 61.8115L48.7036 56.9537C48.2442 56.4948 47.5367 56.395 46.9682 56.7087C45.3578 57.592 43.6543 58.2933 41.8889 58.8C41.2643 58.9801 40.8344 59.5515 40.8345 60.2015V67.0834H29.1679V60.2015C29.168 59.5515 28.738 58.9801 28.1135 58.8C26.348 58.2933 24.6445 57.592 23.0341 56.7087C22.8186 56.5891 22.5762 56.5264 22.3297 56.5265C21.9409 56.525 21.5677 56.6788 21.2929 56.9537L16.4381 61.8115L8.18974 53.5618L13.0475 48.7026C13.5065 48.2433 13.6063 47.5357 13.2925 46.9673C12.4085 45.3573 11.707 43.6536 11.2012 41.8879C11.0212 41.2634 10.4497 40.8334 9.79974 40.8335H2.9176V29.1669H9.79947C10.4494 29.167 11.0209 28.7371 11.201 28.1125C11.7067 26.3454 12.4082 24.6403 13.2922 23.0288C13.6068 22.4599 13.5069 21.7515 13.0472 21.2919L8.18947 16.4385L16.4392 8.18877L21.2983 13.0465C21.7577 13.5055 22.4652 13.6053 23.0337 13.2915C24.6441 12.4083 26.3476 11.707 28.1131 11.2003C28.7376 11.0202 29.1676 10.4487 29.1675 9.79877V2.91662H40.8341V9.7985C40.8339 10.4485 41.2639 11.0199 41.8885 11.2C43.6558 11.7063 45.3615 12.4076 46.9737 13.2913C47.5422 13.605 48.2497 13.5052 48.7091 13.0463L53.5638 8.1885L61.8122 16.4382L56.9544 21.296C56.4948 21.7556 56.3949 22.464 56.7094 23.0329C57.5932 24.643 58.2946 26.3467 58.8007 28.1122C58.9808 28.7368 59.5522 29.1668 60.2022 29.1666H67.0841V40.8334H60.2025Z" fill="#CCCCCC"/>
<path d="M43.7064 20.0622C42.9409 16.7245 40.3346 14.1183 36.9969 13.3528C32.1886 12.25 27.3966 15.254 26.2939 20.0622C26.2649 20.1782 26.2501 20.2971 26.2501 20.4166V23.2895C26.2501 29.8565 30.0942 35 35.0001 35C39.906 35 43.7501 29.8565 43.7501 23.2896V20.4167C43.7501 20.2971 43.7354 20.1782 43.7064 20.0622ZM40.8335 23.2896C40.8335 28.1459 38.2173 32.0834 35.0001 32.0834C31.783 32.0834 29.1667 28.1459 29.1667 23.2896V20.6224V20.6209C29.699 18.4455 31.3974 16.7471 33.5728 16.2148C36.7944 15.4265 40.0452 17.3992 40.8335 20.6209V23.2896Z" fill="#CCCCCC"/>
<path d="M42.2918 35.0001C42.1734 35.0078 42.0546 35.0078 41.936 35.0001C40.4234 34.902 39.2768 33.596 39.375 32.0835H36.4584C36.4551 32.194 36.4551 32.3046 36.4584 32.415C36.55 35.5452 39.1616 38.0085 42.2918 37.9169C44.708 37.9169 46.6668 39.8756 46.6668 42.2919V53.9585H49.5834V42.2919C49.5786 38.2667 46.3169 35.0049 42.2918 35.0001Z" fill="#CCCCCC"/>
<path d="M33.5419 32.0835H30.6252C30.6329 32.2019 30.6329 32.3207 30.6252 32.4392C30.5271 33.9519 29.2211 35.0984 27.7086 35.0003C23.6835 35.005 20.4218 38.2669 20.417 42.2919V53.9585H23.3336V42.2919C23.3336 39.8756 25.2924 37.9169 27.7086 37.9169C27.8191 37.9202 27.9297 37.9202 28.0402 37.9169C31.1702 37.8253 33.6335 35.2135 33.5419 32.0835Z" fill="#CCCCCC"/>
<path d="M29.1667 43.75H26.2501V53.9588H29.1667V43.75Z" fill="#CCCCCC"/>
<path d="M43.7505 43.75H40.8339V53.9588H43.7505V43.75Z" fill="#CCCCCC"/>
<path d="M21.8751 32.0834V24.7917H18.9585V32.0659C18.9682 32.1557 18.9688 32.2463 18.9601 32.3363C18.8899 33.0723 18.2362 33.612 17.5003 33.5417H11.6667V36.4584H17.5001C17.583 36.4608 17.666 36.4608 17.7488 36.4584C20.0964 36.3896 21.9438 34.431 21.8751 32.0834Z" fill="#CCCCCC"/>
<path d="M8.75012 33.5413H5.8335V36.4579H8.75012V33.5413Z" fill="#CCCCCC"/>
<path d="M21.8755 18.9587H18.9589V21.8754H21.8755V18.9587Z" fill="#CCCCCC"/>
<path d="M52.5001 33.5415C52.4135 33.55 52.3261 33.55 52.2394 33.5415C51.5059 33.4696 50.9697 32.8166 51.0418 32.0831V24.7915H48.1251V32.0831C48.1227 32.166 48.1227 32.249 48.1251 32.3318C48.1938 34.6794 50.1525 36.5269 52.5001 36.4581H58.3335V33.5415H52.5001Z" fill="#CCCCCC"/>
<path d="M64.1667 33.5413H61.2501V36.4579H64.1667V33.5413Z" fill="#CCCCCC"/>
<path d="M51.0417 18.9587H48.1251V21.8754H51.0417V18.9587Z" fill="#CCCCCC"/>
</g>
<defs>
<clipPath id="clip0_15_397">
<rect width="70" height="70" fill="white"/>
</clipPath>
</defs>
</svg>
