<svg width="70" height="70" viewBox="0 0 70 70" fill="none" xmlns="http://www.w3.org/2000/svg">
<path d="M65.625 10.2084H55.7084C53.2975 6.02027 47.9479 4.57939 43.7598 6.99029C42.4221 7.76043 41.3119 8.87059 40.5418 10.2084H35V1.45838C35 0.652969 34.347 0 33.5416 0H7.29162C6.48621 0 5.83324 0.652969 5.83324 1.45838V10.2084H4.375C1.95877 10.2084 0 12.1671 0 14.5834V52.5C0 54.9162 1.95877 56.875 4.375 56.875H26.25V60.5062C23.3062 61.5115 21.1325 64.0253 20.5625 67.0834H17.5V70H52.5V67.0834H49.4375C48.8675 64.0253 46.6938 61.5117 43.75 60.5062V56.875H65.625C68.0412 56.875 70 54.9162 70 52.5V14.5834C70 12.1671 68.0412 10.2084 65.625 10.2084ZM48.125 8.75C51.3466 8.75 53.9584 11.3617 53.9584 14.5834C53.9584 19.425 51.348 23.3334 48.125 23.3334C44.9021 23.3334 42.2916 19.3813 42.2916 14.5834C42.2916 11.3617 44.9034 8.75 48.125 8.75ZM53.9584 35V42.2916H42.2918V35H39.375V42.2916H36.4584V33.5416C36.4584 31.1254 38.4171 29.1666 40.8334 29.1666C43.07 29.1962 45.1263 27.9441 46.1271 25.9437C47.4324 26.3546 48.8322 26.3546 50.1375 25.9437C51.136 27.9393 53.1854 29.1905 55.4166 29.1666C57.8329 29.1666 59.7916 31.1254 59.7916 33.5416V42.2916H56.875V35H53.9584ZM8.75 2.91662H32.0834V23.3332H27.7084C26.903 23.3332 26.25 23.9862 26.25 24.7916V27.475L21.7584 23.6687C21.4942 23.4429 21.158 23.3188 20.8105 23.3188H8.75V2.91662ZM2.91662 14.5834C2.91662 13.778 3.56959 13.125 4.375 13.125H5.83338V24.7916C5.83338 25.597 6.48635 26.25 7.29176 26.25H20.2855L26.7751 31.7334C27.3939 32.2488 28.3135 32.1651 28.8291 31.5462C29.0447 31.2874 29.164 30.9619 29.1669 30.625V26.25H33.5419C34.3473 26.25 35.0003 25.597 35.0003 24.7916V13.125H39.5065C39.4216 13.6065 39.3777 14.0943 39.3753 14.5834C39.2144 18.3684 40.7359 22.0309 43.5315 24.5875C43.038 25.6245 41.9818 26.2753 40.8337 26.25C36.8066 26.25 33.542 29.5146 33.542 33.5416V42.2916H2.91703V14.5834H2.91662ZM46.4334 67.0834H23.5666C24.077 65.3334 25.652 62.7084 30.625 62.7084H35V59.7918H30.625C30.1146 59.7918 29.6334 59.7918 29.1666 59.7918V56.875H40.8332V59.7916C40.3666 59.7916 39.8854 59.7916 39.3749 59.7916V62.7082C44.3479 62.7084 45.9229 65.3334 46.4334 67.0834ZM67.0834 52.5C67.0834 53.3054 66.4304 53.9584 65.625 53.9584H4.375C3.56959 53.9584 2.91662 53.3054 2.91662 52.5V45.2084H67.0832V52.5H67.0834ZM67.0834 42.2916H62.7084V33.5416C62.7084 29.5146 59.4438 26.25 55.4168 26.25C54.2583 26.2675 53.1995 25.5979 52.7189 24.5438C55.5026 21.9971 57.0231 18.3533 56.8751 14.5834C56.8727 14.0945 56.8288 13.6065 56.7439 13.125H65.625C66.4304 13.125 67.0834 13.778 67.0834 14.5834V42.2916Z" fill="#CCCCCC"/>
<path d="M8.75 48.125H5.83337V51.0416H8.75V48.125Z" fill="#CCCCCC"/>
<path d="M13.125 48.125H10.2084V51.0416H13.125V48.125Z" fill="#CCCCCC"/>
<path d="M17.5 48.125H14.5834V51.0416H17.5V48.125Z" fill="#CCCCCC"/>
<path d="M27.7084 8.75H13.125V11.6666H27.7084V8.75Z" fill="#CCCCCC"/>
<path d="M27.7084 14.5835H13.125V17.5001H27.7084V14.5835Z" fill="#CCCCCC"/>
</svg>
