<svg width="70" height="70" viewBox="0 0 70 70" fill="none" xmlns="http://www.w3.org/2000/svg">
<path d="M62.7084 0H7.29162C3.26662 0.00478516 0.00478516 3.26662 0 7.29162V33.5416H2.91662V7.29162C2.91662 4.87539 4.87539 2.91662 7.29162 2.91662H62.7082C65.1245 2.91662 67.0832 4.87539 67.0832 7.29162V62.7082C67.0832 65.1245 65.1245 67.0832 62.7082 67.0832H7.29162C4.87539 67.0832 2.91662 65.1245 2.91662 62.7082V53.1036L16.6454 39.375H37.9166C38.3034 39.3749 38.6742 39.2212 38.9476 38.9478L57.906 19.9894L55.8439 17.9272L37.3129 36.4584H16.0416C15.6548 36.4585 15.2841 36.6122 15.0106 36.8856L0.427246 51.469C0.153809 51.7424 0 52.1134 0 52.5V62.7084C0.00478516 66.7334 3.26662 69.9952 7.29162 70H62.7082C66.7334 69.9952 69.9951 66.7334 69.9999 62.7084V7.29162C69.9952 3.26662 66.7334 0.00478516 62.7084 0Z" fill="#CCCCCC"/>
<path d="M56.875 17.5H46.6666V20.4166H55.4166V27.7082H58.3332V18.9582C58.3334 18.153 57.6804 17.5 56.875 17.5Z" fill="#CCCCCC"/>
<path d="M59.7916 52.5H45.2084V55.4166H58.3334V58.3332H45.2084V61.25H59.7918C60.5972 61.25 61.2501 60.597 61.2501 59.7916V53.9582C61.25 53.153 60.597 52.5 59.7916 52.5Z" fill="#CCCCCC"/>
<path d="M42.2916 52.5H39.375V55.4166H42.2916V52.5Z" fill="#CCCCCC"/>
<path d="M36.4582 52.5H33.5416V55.4166H36.4582V52.5Z" fill="#CCCCCC"/>
<path d="M42.2916 58.3335H26.25V61.2501H42.2916V58.3335Z" fill="#CCCCCC"/>
</svg>
