<svg width="50" height="50" viewBox="0 0 50 50" fill="none" xmlns="http://www.w3.org/2000/svg">
<g clip-path="url(#clip0_74_210)">
<path d="M24.1537 16.8056C22.9826 17.942 21.6555 19.2303 20.9822 20.742C20.7804 21.1948 20.8216 21.7194 21.092 22.1355C21.3621 22.5517 21.8244 22.8027 22.3204 22.8027H27.4114C28.2205 22.8027 28.8763 22.1466 28.8763 21.3379C28.8763 20.5288 28.2205 19.873 27.4114 19.873H25.2199C25.54 19.5427 25.8737 19.2184 26.1942 18.9079C27.6335 17.511 28.8767 16.3044 28.8767 14.7942C28.8767 12.5599 27.059 10.7422 24.8251 10.7422C23.1924 10.7422 21.7279 11.7138 21.0939 13.2179C20.7796 13.9633 21.129 14.8224 21.8744 15.1367C22.6202 15.4514 23.4793 15.1016 23.7932 14.3562C23.9687 13.9404 24.3734 13.6719 24.8251 13.6719C25.4339 13.6719 25.9313 14.1598 25.9466 14.7655C25.8341 15.1745 24.8243 16.1545 24.1537 16.8056Z" fill="#CCCCCC"/>
<path d="M2.56409 16.4059L3.18436 15.7853V19.8613H2.16012C1.35102 19.8613 0.695275 20.517 0.695275 21.3261C0.695275 22.1352 1.35102 22.791 2.16012 22.791H7.13754C7.94625 22.791 8.60238 22.1352 8.60238 21.3261C8.60238 20.517 7.94625 19.8613 7.13754 19.8613H6.11405V12.2464C6.11405 11.654 5.757 11.1195 5.20959 10.8933C4.66218 10.6663 4.03199 10.7922 3.61314 11.2111L0.49157 14.3353C-0.0802534 14.9075 -0.079872 15.8353 0.492714 16.4071C1.06492 16.9785 1.99227 16.9785 2.56409 16.4059Z" fill="#CCCCCC"/>
<path d="M45.5586 25.1045C44.3723 25.1045 43.2569 25.5668 42.418 26.4061C41.5791 27.2453 41.1172 28.3611 41.1172 29.5475C41.1172 31.9973 43.1096 33.9904 45.5586 33.9908C46.745 33.9908 47.8604 33.5285 48.6993 32.6893C49.5381 31.85 50.0001 30.7342 50.0001 29.5479C50.0001 27.0977 48.0077 25.1045 45.5586 25.1045ZM46.6275 30.6183C46.3418 30.9036 45.9622 31.0611 45.5586 31.0611C44.7251 31.0611 44.0469 30.3821 44.0469 29.5479C44.0469 29.1435 44.2044 28.7632 44.4901 28.4774C44.7755 28.1917 45.155 28.0346 45.5586 28.0346C46.3925 28.0346 47.0704 28.7132 47.0704 29.5479C47.0704 29.9522 46.9132 30.3322 46.6275 30.6183Z" fill="#CCCCCC"/>
<path d="M24.8877 33.9908C26.0741 33.9908 27.1895 33.5285 28.0284 32.6892C28.8672 31.85 29.3288 30.7346 29.3288 29.5478C29.3288 27.098 27.3364 25.1049 24.8877 25.1049C24.8874 25.1049 24.8877 25.1049 24.8874 25.1049C23.701 25.1049 22.5856 25.5668 21.7467 26.4064C20.9082 27.2453 20.4463 28.3611 20.4463 29.5478C20.4463 31.9976 22.4387 33.9908 24.8877 33.9908ZM23.8189 28.4774C24.1042 28.1917 24.4841 28.0342 24.8877 28.0342C25.7213 28.0342 26.3991 28.7132 26.3991 29.5478C26.3991 29.9522 26.242 30.3321 25.9562 30.6179C25.6705 30.9036 25.2913 31.0611 24.8877 31.0611C24.0538 31.0611 23.376 30.3821 23.376 29.5475C23.376 29.1431 23.5331 28.7632 23.8189 28.4774Z" fill="#CCCCCC"/>
<path d="M13.4103 29.6776C13.4103 28.9139 12.7916 28.2952 12.0287 28.2952C11.2653 28.2952 10.647 28.9139 10.647 29.6776C10.647 30.4409 11.2653 31.0601 12.0287 31.0601C12.7916 31.0601 13.4103 30.4409 13.4103 29.6776Z" fill="#CCCCCC"/>
<path d="M18.7322 29.6776C18.7322 28.9139 18.1139 28.2952 17.3509 28.2952C16.5876 28.2952 15.9692 28.9139 15.9692 29.6776C15.9692 30.4409 16.5876 31.0601 17.3509 31.0601C18.1139 31.0601 18.7322 30.4409 18.7322 29.6776Z" fill="#CCCCCC"/>
<path d="M33.7863 29.6776C33.7863 28.9139 33.168 28.2952 32.4046 28.2952C31.6417 28.2952 31.0229 28.9139 31.0229 29.6776C31.0229 30.4409 31.6417 31.0601 32.4046 31.0601C33.168 31.0601 33.7863 30.4409 33.7863 29.6776Z" fill="#CCCCCC"/>
<path d="M39.1091 29.6776C39.1091 28.9139 38.4907 28.2952 37.7274 28.2952C36.9644 28.2952 36.3457 28.9139 36.3457 29.6776C36.3457 30.4409 36.9644 31.0601 37.7274 31.0601C38.4907 31.0601 39.1091 30.4409 39.1091 29.6776Z" fill="#CCCCCC"/>
<path d="M28.664 36.2892H21.3799C20.5708 36.2892 19.915 36.9449 19.915 37.754C19.915 38.5631 20.5708 39.2189 21.3799 39.2189H28.664C29.4731 39.2189 30.1289 38.5631 30.1289 37.754C30.1289 36.9449 29.4731 36.2892 28.664 36.2892Z" fill="#CCCCCC"/>
<path d="M7.54585 25.2941L3.48663 29.3652L2.50092 28.3791C1.92909 27.8065 1.00174 27.8065 0.429535 28.3783C-0.143051 28.9501 -0.143051 29.8775 0.428772 30.4497L2.45171 32.4738C2.72636 32.7488 3.09906 32.9033 3.48778 32.9033H3.48854C3.87726 32.9033 4.25034 32.7484 4.52499 32.473L9.62029 27.3628C10.1917 26.7899 10.1902 25.8625 9.61723 25.2914C9.04465 24.72 8.11691 24.7215 7.54585 25.2941Z" fill="#CCCCCC"/>
<path d="M45.5157 22.8352C47.724 22.8352 49.5036 21.0735 49.5669 18.8244C49.5829 18.2499 49.5024 16.7912 48.4068 15.6643C48.2272 15.4793 47.9971 15.2824 47.7091 15.1028L49.1766 13.126C49.5066 12.6816 49.5581 12.0888 49.3094 11.5944C49.0607 11.1 48.5541 10.788 48.0006 10.788H43.6087C42.7996 10.788 42.1439 11.4437 42.1439 12.2528C42.1439 13.0619 42.7996 13.7177 43.6087 13.7177H45.0888L44.0981 15.0517C43.7682 15.4961 43.7167 16.0885 43.9658 16.5833C44.2145 17.0776 44.7207 17.3897 45.2742 17.3897C45.7545 17.3897 46.102 17.4965 46.3065 17.7067C46.5655 17.9733 46.6471 18.4311 46.6383 18.7424C46.62 19.3947 46.1268 19.9055 45.5157 19.9055C45.0644 19.9055 44.6597 19.6369 44.4842 19.2215C44.1702 18.4757 43.3108 18.1263 42.5654 18.4406C41.82 18.755 41.4706 19.614 41.7849 20.3594C42.4189 21.8636 43.8834 22.8352 45.5157 22.8352Z" fill="#CCCCCC"/>
</g>
<defs>
<clipPath id="clip0_74_210">
<rect width="50" height="50" fill="white"/>
</clipPath>
</defs>
</svg>
