<svg width="50" height="50" viewBox="0 0 50 50" fill="none" xmlns="http://www.w3.org/2000/svg">
<path d="M30.5664 23.5352H30.3711V21.2891C30.3711 18.3274 27.9616 15.918 25 15.918C22.0384 15.918 19.6289 18.3274 19.6289 21.2891V23.5352H19.4336C18.6246 23.5352 17.9688 24.191 17.9688 25V32.6172C17.9688 33.4262 18.6246 34.082 19.4336 34.082H30.5664C31.3754 34.082 32.0312 33.4262 32.0312 32.6172V25C32.0312 24.191 31.3754 23.5352 30.5664 23.5352ZM22.5586 21.2891C22.5586 19.9429 23.6538 18.8477 25 18.8477C26.3462 18.8477 27.4414 19.9429 27.4414 21.2891V23.5352H22.5586V21.2891ZM29.1016 31.1523H20.8984V26.4648C21.9033 26.4648 28.3729 26.4648 29.1016 26.4648V31.1523Z" fill="#CCCCCC"/>
<path d="M45.1172 40.2344C44.3034 40.2344 43.5361 40.4355 42.8607 40.7892L39.4547 37.3832C42.3132 34.0513 44.043 29.724 44.043 25C44.043 20.276 42.3132 15.9487 39.4547 12.6169L42.8607 9.21094C43.5361 9.56445 44.3034 9.76562 45.1172 9.76562C47.8096 9.76562 50 7.5752 50 4.88281C50 2.19043 47.8096 0 45.1172 0C42.4248 0 40.2344 2.19043 40.2344 4.88281C40.2344 5.69658 40.4355 6.46387 40.7892 7.13926L37.3831 10.5452C34.0513 7.68682 29.724 5.95703 25 5.95703C20.276 5.95703 15.9487 7.68682 12.6169 10.5453L9.21084 7.13926C9.56445 6.46387 9.76562 5.69658 9.76562 4.88281C9.76562 2.19043 7.5752 0 4.88281 0C2.19043 0 0 2.19043 0 4.88281C0 7.5752 2.19043 9.76562 4.88281 9.76562C5.69658 9.76562 6.46387 9.56445 7.13926 9.21084L10.5453 12.6168C7.68682 15.9487 5.95703 20.276 5.95703 25C5.95703 29.724 7.68682 34.0513 10.5453 37.3831L7.13926 40.7891C6.46387 40.4355 5.69658 40.2344 4.88281 40.2344C2.19043 40.2344 0 42.4248 0 45.1172C0 47.8096 2.19043 50 4.88281 50C7.5752 50 9.76562 47.8096 9.76562 45.1172C9.76562 44.3034 9.56445 43.5361 9.21084 42.8607L12.6169 39.4548C15.9487 42.3132 20.276 44.043 25 44.043C29.724 44.043 34.0513 42.3132 37.3831 39.4547L40.7892 42.8606C40.4355 43.5361 40.2344 44.3034 40.2344 45.1172C40.2344 47.8096 42.4248 50 45.1172 50C47.8096 50 50 47.8096 50 45.1172C50 42.4248 47.8096 40.2344 45.1172 40.2344ZM45.1172 2.92969C46.1941 2.92969 47.0703 3.80586 47.0703 4.88281C47.0703 5.95977 46.1941 6.83594 45.1172 6.83594C44.0402 6.83594 43.1641 5.95977 43.1641 4.88281C43.1641 3.80586 44.0402 2.92969 45.1172 2.92969ZM4.88281 6.83594C3.80586 6.83594 2.92969 5.95977 2.92969 4.88281C2.92969 3.80586 3.80586 2.92969 4.88281 2.92969C5.95977 2.92969 6.83594 3.80586 6.83594 4.88281C6.83594 5.95977 5.95977 6.83594 4.88281 6.83594ZM4.88281 47.0703C3.80586 47.0703 2.92969 46.1941 2.92969 45.1172C2.92969 44.0402 3.80586 43.1641 4.88281 43.1641C5.95977 43.1641 6.83594 44.0402 6.83594 45.1172C6.83594 46.1941 5.95977 47.0703 4.88281 47.0703ZM25 41.1133C16.1151 41.1133 8.88672 33.8849 8.88672 25C8.88672 16.1151 16.1151 8.88672 25 8.88672C33.8849 8.88672 41.1133 16.1151 41.1133 25C41.1133 33.8849 33.8849 41.1133 25 41.1133ZM45.1172 47.0703C44.0402 47.0703 43.1641 46.1941 43.1641 45.1172C43.1641 44.0402 44.0402 43.1641 45.1172 43.1641C46.1941 43.1641 47.0703 44.0402 47.0703 45.1172C47.0703 46.1941 46.1941 47.0703 45.1172 47.0703Z" fill="#CCCCCC"/>
</svg>
