<svg width="70" height="70" viewBox="0 0 70 70" fill="none" xmlns="http://www.w3.org/2000/svg">
<g clip-path="url(#clip0_15_375)">
<path d="M69.9596 13.1517V4.4123C69.9596 3.60787 69.3074 2.95569 68.503 2.95569H55.3939V1.49909C55.3939 0.694656 54.7418 0.0424805 53.9373 0.0424805H16.0669C15.2625 0.0424805 14.6103 0.694656 14.6103 1.49909V2.95569H1.50125C0.696814 2.95569 0.0446385 3.60787 0.0446385 4.4123V13.006C-0.265199 17.1695 1.04448 21.2917 3.70056 24.5128C6.55711 27.4781 10.493 29.1596 14.6102 29.1738V32.0869C14.6102 37.4616 20.6694 41.8603 29.1758 43.2733V55.3919H26.2627C22.8014 55.3912 19.8179 57.8268 19.1255 61.2182H14.6102C13.8057 61.2182 13.1536 61.8703 13.1536 62.6748V68.5011C13.1536 69.3055 13.8057 69.9577 14.6102 69.9577H55.3939C56.1984 69.9577 56.8505 69.3055 56.8505 68.5011V62.6748C56.8505 61.8703 56.1984 61.2182 55.3939 61.2182H49.4221C48.7298 57.8268 45.7462 55.3912 42.2849 55.3919H40.8283V43.2733C49.3345 41.8603 55.3939 37.4616 55.3939 32.0869V29.1738C59.4976 29.1709 63.4262 27.5113 66.2891 24.571C68.9383 21.3798 70.2532 17.2888 69.9596 13.1517ZM14.6103 26.2607C11.3315 26.2581 8.18809 24.9536 5.87093 22.6339C3.73334 19.9565 2.69212 16.5674 2.95785 13.1517V5.86877H14.6103V26.2607ZM48.1112 64.1312H53.9375V67.0443H16.0669V64.1312H48.1112ZM42.285 58.305C44.1376 58.304 45.7895 59.4714 46.4071 61.218H22.1408C22.7583 59.4714 24.4101 58.304 26.2629 58.305H42.285ZM32.089 55.3919V43.6084C33.0358 43.6811 34.0117 43.7394 35.0021 43.7394C35.9925 43.7394 36.9685 43.7394 37.9152 43.6084V55.3919H32.089ZM52.4809 32.0869C52.4809 36.8207 44.4697 40.8262 35.0021 40.8262C25.5345 40.8262 17.5234 36.8207 17.5234 32.0869V2.95569H52.4809V32.0869ZM64.1334 22.5902C61.8235 24.9259 58.6791 26.2465 55.3941 26.2607V5.86877H67.0465V13.2972C67.2724 16.6503 66.2329 19.966 64.1334 22.5902Z" fill="#CCCCCC"/>
<path d="M46.6547 13.1518H49.5677V7.3255C49.5677 6.52107 48.9156 5.8689 48.1111 5.8689H42.2849V8.78197H46.6545V13.1518H46.6547Z" fill="#CCCCCC"/>
<path d="M49.5677 16.0647H46.6547V18.9778H49.5677V16.0647Z" fill="#CCCCCC"/>
</g>
<defs>
<clipPath id="clip0_15_375">
<rect width="70" height="70" fill="white"/>
</clipPath>
</defs>
</svg>
