<svg width="50" height="48" viewBox="0 0 50 48" fill="none" xmlns="http://www.w3.org/2000/svg">
<path d="M39.7181 0.513672H10.282C4.6125 0.513672 0 5.12617 0 10.7957C0 16.4652 4.6125 21.0777 10.282 21.0777H17.7687V29.3847L17.4031 29.078C15.5962 27.5617 12.7687 27.685 11.1006 29.3532C9.35254 31.1013 9.46699 33.8795 11.3679 35.4744L17.7686 40.8453V46.0215C17.7686 46.8305 18.4244 47.4863 19.2334 47.4863H36.8115C37.6205 47.4863 38.2764 46.8305 38.2764 46.0215V29.5609C38.2764 27.3484 36.6207 25.4736 34.4251 25.2001L26.5576 24.2199V21.0775H39.7181C45.3876 21.0775 50 16.465 50 10.7955C50 5.12598 45.3876 0.513672 39.7181 0.513672ZM20.6982 44.5566V41.627H35.3467V44.5566H20.6982ZM34.063 28.1073C34.7948 28.1985 35.3468 28.8234 35.3468 29.5609V38.6973H19.7666L13.251 33.2301C12.6727 32.7448 12.6376 31.9594 13.1722 31.4247C13.7726 30.8244 14.8696 30.7766 15.52 31.3223L18.2919 33.6481C19.2427 34.4458 20.6983 33.7691 20.6983 32.526V13.7949C20.6983 12.9872 21.3555 12.3301 22.1632 12.3301C22.9709 12.3301 23.628 12.9872 23.628 13.7949V25.5137C23.628 26.2526 24.1785 26.8759 24.9118 26.9673L34.063 28.1073ZM39.7181 18.1479H26.5576V13.7949C26.5576 11.3718 24.5862 9.40039 22.1631 9.40039C19.7399 9.40039 17.7686 11.3718 17.7686 13.7949V18.1479H10.2819C6.22793 18.1479 2.92969 14.8497 2.92969 10.7957C2.92969 6.7417 6.22793 3.44336 10.282 3.44336H39.7181C43.7721 3.44336 47.0703 6.7416 47.0703 10.7957C47.0703 14.8498 43.7721 18.1479 39.7181 18.1479Z" fill="#CCCCCC"/>
<path d="M38.603 6.80217L33.7794 11.6257L31.8854 9.73186C31.3134 9.15979 30.3859 9.15979 29.8138 9.73186C29.2417 10.3039 29.2417 11.2314 29.8138 11.8034L32.7435 14.7331C33.3155 15.3052 34.243 15.3053 34.8151 14.7331L40.6745 8.87375C41.2466 8.30168 41.2466 7.37424 40.6745 6.80217C40.1025 6.23001 39.175 6.23001 38.603 6.80217Z" fill="#CCCCCC"/>
</svg>
