<svg width="50" height="50" viewBox="0 0 50 50" fill="none" xmlns="http://www.w3.org/2000/svg">
<g clip-path="url(#clip0_12_49)">
<path d="M43.5711 5.35145L25.5039 0.0707886L25.4667 0.060437C25.1615 -0.0201294 24.8389 -0.0201294 24.5336 0.0603394L24.5148 0.0653198L6.4291 5.35136C5.09492 5.71385 4.16504 6.92831 4.16504 8.31259V34.0721C4.16504 37.4542 6.03193 40.5036 9.04014 42.0422L20.8706 48.9958L20.9528 49.0406C22.2199 49.6802 23.6099 50 25 50C26.3899 50 27.7801 49.6803 29.0471 49.0407L29.089 49.0196L40.9599 42.0423C43.9682 40.5038 45.8351 37.4544 45.8351 34.0722V8.31259C45.835 6.92831 44.9053 5.71405 43.5711 5.35145ZM42.9052 34.0721C42.9052 36.3585 41.6373 38.4186 39.5961 39.4488L39.5542 39.4699L27.6873 46.4449C26.001 47.2806 23.9986 47.2805 22.3123 46.4449L10.4858 39.4936L10.4035 39.4488C8.3626 38.4186 7.09473 36.3584 7.09473 34.0721V8.31259C7.09473 8.2496 7.13731 8.19452 7.19814 8.17841L24.9999 2.97577L42.7644 8.16805L42.8017 8.17841C42.8626 8.19452 42.9052 8.2496 42.9052 8.31259V34.0721Z" fill="#CCCCCC"/>
<path d="M25 11.4353C18.0801 11.4353 12.4503 17.0651 12.4503 23.985C12.4503 30.9049 18.0801 36.5347 25 36.5347C31.9199 36.5347 37.5497 30.9049 37.5497 23.985C37.5497 17.0651 31.9199 11.4353 25 11.4353ZM25 33.6049C19.6955 33.6049 15.3801 29.2895 15.3801 23.985C15.3801 18.6805 19.6955 14.3651 25 14.3651C30.3045 14.3651 34.6199 18.6805 34.6199 23.985C34.6199 29.2895 30.3045 33.6049 25 33.6049Z" fill="#CCCCCC"/>
<path d="M30.3729 20.2224C29.8235 19.6286 28.8967 19.5927 28.3028 20.1421L23.3553 24.7203L21.7381 23.1031C21.1661 22.5312 20.2386 22.5311 19.6664 23.1031C19.0944 23.6752 19.0944 24.6026 19.6664 25.1748L22.2801 27.7885C22.2926 27.801 22.3062 27.8117 22.3189 27.8236C22.3369 27.8403 22.3547 27.8571 22.3732 27.8728C22.3935 27.8899 22.4144 27.9057 22.4354 27.9214C22.4545 27.9358 22.4734 27.9504 22.4931 27.9638C22.5152 27.9788 22.5379 27.9924 22.5606 28.0062C22.5802 28.0179 22.5994 28.0301 22.6193 28.0408C22.6437 28.054 22.6687 28.0655 22.6937 28.0773C22.7129 28.0862 22.7317 28.0959 22.7513 28.104C22.7782 28.1152 22.8056 28.1246 22.833 28.1341C22.8514 28.1405 22.8694 28.1477 22.8881 28.1533C22.9178 28.1623 22.9478 28.1692 22.9778 28.1764C22.9948 28.1804 23.0115 28.1854 23.0286 28.1888C23.0623 28.1955 23.0963 28.1999 23.1304 28.2042C23.1441 28.206 23.1578 28.2088 23.1717 28.2102C23.2196 28.2149 23.2677 28.2174 23.3158 28.2174C23.3159 28.2174 23.3159 28.2174 23.3159 28.2174C23.316 28.2174 23.3161 28.2174 23.3161 28.2174C23.3618 28.2174 23.4076 28.2151 23.4532 28.2108C23.4665 28.2096 23.4797 28.207 23.493 28.2054C23.5252 28.2015 23.5573 28.1976 23.5894 28.1915C23.6062 28.1883 23.6227 28.1837 23.6393 28.18C23.6674 28.1736 23.6955 28.1675 23.7233 28.1595C23.7418 28.1541 23.7599 28.1474 23.7781 28.1413C23.8036 28.1328 23.8291 28.1246 23.8542 28.1147C23.8735 28.107 23.8924 28.0981 23.9115 28.0896C23.9349 28.0791 23.9582 28.069 23.9812 28.0572C24.0009 28.0472 24.02 28.0358 24.0394 28.0249C24.0608 28.0127 24.0823 28.0006 24.1033 27.9871C24.1228 27.9747 24.1416 27.9611 24.1605 27.9478C24.1807 27.9335 24.2007 27.9192 24.2202 27.9039C24.2385 27.8896 24.2562 27.8742 24.2738 27.8589C24.286 27.8483 24.2988 27.8389 24.3108 27.8278L30.2926 22.2925C30.8864 21.743 30.9223 20.8161 30.3729 20.2224Z" fill="#CCCCCC"/>
</g>
<defs>
<clipPath id="clip0_12_49">
<rect width="50" height="50" fill="white"/>
</clipPath>
</defs>
</svg>
