<svg width="30" height="30" viewBox="0 0 30 30" fill="none" xmlns="http://www.w3.org/2000/svg">
<path d="M15.0009 0C9.00087 0 4.08594 5.36171 4.08594 12C4.08594 18.4468 13.7881 26.617 14.1711 26.9362C14.4264 27.1277 14.7456 27.2553 15.0009 27.2553C15.2562 27.2553 15.5754 27.1914 15.7669 27C16.2137 26.617 25.9158 18.4468 25.9158 11.9999C25.9158 5.36171 21.0009 0 15.0009 0ZM15.0009 24.383C12.0647 21.766 6.57536 15.9574 6.57536 12C6.57536 6.76598 10.3414 2.48936 15.0009 2.48936C19.6604 2.48936 23.4264 6.76598 23.4264 12C23.4264 16.0213 17.937 21.766 15.0009 24.383Z" fill="#CCCCCC"/>
<path d="M14.9994 5.17017C12.0632 5.17017 9.6377 7.59568 9.6377 10.5319C9.6377 13.4681 12.0632 15.8936 14.9994 15.8936C17.9356 15.8936 20.3611 13.4681 20.3611 10.5319C20.3611 7.59568 17.9356 5.17017 14.9994 5.17017ZM14.9994 13.3404C13.4675 13.3404 12.1909 12.1276 12.1909 10.5319C12.1909 8.99996 13.4037 7.72338 14.9994 7.72338C16.5952 7.72338 17.8079 8.99996 17.8079 10.5319C17.8079 12.0638 16.5313 13.3404 14.9994 13.3404Z" fill="#CCCCCC"/>
<path d="M19.0845 27.4468H10.9143C10.2122 27.4468 9.6377 28.0212 9.6377 28.7234C9.6377 29.4255 10.2122 29.9999 10.9143 29.9999H19.0845C19.7866 29.9999 20.361 29.4255 20.361 28.7234C20.361 28.0212 19.7866 27.4468 19.0845 27.4468Z" fill="#CCCCCC"/>
</svg>
