<svg width="100" height="100" viewBox="0 0 100 100" fill="none" xmlns="http://www.w3.org/2000/svg">
<g clip-path="url(#clip0_76_0)">
<path d="M50 92.1387C38.7443 92.1387 28.1623 87.7555 20.2033 79.7965C12.2443 71.8377 7.86133 61.2557 7.86133 50C7.86133 43.1813 9.52813 36.4078 12.6814 30.4121C15.7332 24.6096 20.1711 19.5227 25.5152 15.701C27.0521 14.6018 28.7563 16.985 27.2193 18.084C22.2449 21.641 18.1146 26.3756 15.2744 31.7758C12.3414 37.3527 10.791 43.6545 10.791 50C10.791 71.6199 28.3801 89.209 50 89.209C71.6199 89.209 89.209 71.6199 89.209 50C89.209 28.3801 71.6199 10.791 50 10.791C44.9215 10.791 39.9807 11.7473 35.3146 13.6334C33.5627 14.3412 32.4648 11.6252 34.2168 10.9172C39.2332 8.88945 44.5436 7.86133 50 7.86133C61.2557 7.86133 71.8377 12.2445 79.7967 20.2035C87.7557 28.1625 92.1387 38.7443 92.1387 50C92.1387 61.2557 87.7557 71.8377 79.7967 79.7965C71.8377 87.7555 61.2557 92.1387 50 92.1387V92.1387Z" fill="white"/>
<path d="M50 100C36.6445 100 24.0883 94.799 14.6445 85.3555C5.20098 75.9115 0 63.3555 0 50C0 36.6445 5.20098 24.0885 14.6445 14.6445C24.0883 5.20098 36.6445 0 50 0C63.3555 0 75.9117 5.20098 85.3555 14.6445C94.799 24.0885 100 36.6445 100 50C100 58.0033 98.1654 65.6498 94.5477 72.7275C91.0973 79.4775 86.06 85.4562 79.9807 90.018C78.4697 91.1527 76.7109 88.8086 78.2225 87.6746C83.9473 83.3791 88.6904 77.7494 91.9391 71.3941C95.3439 64.7332 97.0703 57.5352 97.0703 50C97.0703 37.427 92.1742 25.6066 83.2838 16.7162C74.3934 7.82578 62.573 2.92969 50 2.92969C37.427 2.92969 25.6066 7.82578 16.7162 16.7162C7.82578 25.6066 2.92969 37.427 2.92969 50C2.92969 62.573 7.82578 74.3934 16.7162 83.2838C25.6066 92.1742 37.427 97.0703 50 97.0703C57.1689 97.0703 64.0514 95.5008 70.4562 92.4051C72.1576 91.5832 73.4324 94.2207 71.7311 95.0428C64.9256 98.3322 57.6141 100 50 100V100Z" fill="white"/>
<path d="M37.2824 70.7146C35.2777 70.7146 33.6211 69.0361 33.6211 67.0472V45.8984C33.6211 44.0089 36.5508 44.0089 36.5508 45.8984V67.0472C36.5508 67.6066 37.1641 67.9607 37.6484 67.681L67.1754 50.6337C67.6598 50.3541 67.6598 49.6457 67.1754 49.3662L37.6484 32.3189C37.1641 32.0392 36.5508 32.3933 36.5508 32.9527V37.6953C36.5508 39.5847 33.6211 39.5847 33.6211 37.6953V32.9527C33.6211 30.192 36.7211 28.4004 39.1133 29.7818L68.6402 46.8291C71.0313 48.2097 71.0322 51.7896 68.6402 53.1711L39.1133 70.2183C38.54 70.5492 37.9111 70.7146 37.2824 70.7146Z" fill="white"/>
</g>
<defs>
<clipPath id="clip0_76_0">
<rect width="100" height="100" fill="white"/>
</clipPath>
</defs>
</svg>
