<svg width="120" height="120" viewBox="0 0 120 120" fill="none" xmlns="http://www.w3.org/2000/svg">
<g clip-path="url(#clip0_63_2)">
<path d="M60 110.566C46.4932 110.566 33.7948 105.307 24.244 95.7558C14.6932 86.2052 9.43359 73.5068 9.43359 60C9.43359 51.8175 11.4338 43.6894 15.2177 36.4945C18.8798 29.5315 24.2053 23.4272 30.6183 18.8412C32.4626 17.5221 34.5075 20.382 32.6632 21.7008C26.6939 25.9692 21.7376 31.6507 18.3293 38.1309C14.8097 44.8233 12.9492 52.3854 12.9492 60C12.9492 85.9439 34.0561 107.051 60 107.051C85.9439 107.051 107.051 85.9439 107.051 60C107.051 34.0561 85.9439 12.9492 60 12.9492C53.9058 12.9492 47.9768 14.0967 42.3776 16.3601C40.2752 17.2095 38.9578 13.9502 41.0602 13.1006C47.0798 10.6673 53.4523 9.43359 60 9.43359C73.5068 9.43359 86.2052 14.6934 95.756 24.2442C105.307 33.795 110.566 46.4932 110.566 60C110.566 73.5068 105.307 86.2052 95.756 95.7558C86.2052 105.307 73.5068 110.566 60 110.566V110.566Z" fill="white"/>
<path d="M60 120C43.9734 120 28.9059 113.759 17.5734 102.427C6.24117 91.0938 0 76.0266 0 60C0 43.9734 6.24117 28.9062 17.5734 17.5734C28.9059 6.24117 43.9734 0 60 0C76.0266 0 91.0941 6.24117 102.427 17.5734C113.759 28.9062 120 43.9734 120 60C120 69.604 117.799 78.7798 113.457 87.273C109.317 95.373 103.272 102.547 95.9768 108.022C94.1637 109.383 92.0531 106.57 93.867 105.21C100.737 100.055 106.429 93.2993 110.327 85.673C114.413 77.6798 116.484 69.0422 116.484 60C116.484 44.9123 110.609 30.728 99.9405 20.0595C89.272 9.39094 75.0877 3.51562 60 3.51562C44.9123 3.51562 30.728 9.39094 20.0595 20.0595C9.39094 30.728 3.51562 44.9123 3.51562 60C3.51562 75.0877 9.39094 89.272 20.0595 99.9405C30.728 110.609 44.9123 116.484 60 116.484C68.6027 116.484 76.8616 114.601 84.5475 110.886C86.5891 109.9 88.1189 113.065 86.0773 114.051C77.9107 117.999 69.1369 120 60 120V120Z" fill="white"/>
<path d="M44.7393 84.8576C42.3337 84.8576 40.3457 82.8434 40.3457 80.4567V55.0781C40.3457 52.8108 43.8613 52.8108 43.8613 55.0781V80.4567C43.8613 81.128 44.5973 81.5529 45.1785 81.2173L80.6109 60.7605C81.1921 60.4249 81.1921 59.5748 80.6109 59.2394L45.1785 38.7827C44.5973 38.4471 43.8613 38.872 43.8613 39.5433V45.2344C43.8613 47.5017 40.3457 47.5017 40.3457 45.2344V39.5433C40.3457 36.2304 44.0657 34.0805 46.9363 35.7382L82.3687 56.1949C85.2379 57.8517 85.2391 62.1476 82.3687 63.8053L46.9363 84.262C46.2484 84.6591 45.4938 84.8576 44.7393 84.8576Z" fill="white"/>
</g>
<defs>
<clipPath id="clip0_63_2">
<rect width="120" height="120" fill="white"/>
</clipPath>
</defs>
</svg>
