<svg width="100" height="100" viewBox="0 0 100 100" fill="none" xmlns="http://www.w3.org/2000/svg">
<path d="M50 100C36.6445 100 24.0883 94.799 14.6445 85.3555C5.20098 75.9115 0 63.3555 0 50C0 36.6445 5.20098 24.0885 14.6445 14.6445C24.0883 5.20098 36.6445 0 50 0C63.3555 0 75.9117 5.20098 85.3555 14.6445C94.799 24.0885 100 36.6445 100 50C100 58.0033 98.1654 65.6498 94.5477 72.7275C91.0973 79.4775 86.06 85.4562 79.9807 90.018C78.4697 91.1527 76.7109 88.8086 78.2225 87.6746C83.9473 83.3791 88.6904 77.7494 91.9391 71.3941C95.3439 64.7332 97.0703 57.5352 97.0703 50C97.0703 37.427 92.1742 25.6066 83.2838 16.7162C74.3934 7.82578 62.573 2.92969 50 2.92969C37.427 2.92969 25.6066 7.82578 16.7162 16.7162C7.82578 25.6066 2.92969 37.427 2.92969 50C2.92969 62.573 7.82578 74.3934 16.7162 83.2838C25.6066 92.1742 37.427 97.0703 50 97.0703C57.1689 97.0703 64.0514 95.5008 70.4562 92.4051C72.1576 91.5832 73.4324 94.2207 71.7311 95.0428C64.9256 98.3322 57.6141 100 50 100V100Z" fill="white"/>
</svg>
