<svg width="20" height="20" viewBox="0 0 20 20" fill="none" xmlns="http://www.w3.org/2000/svg">
<path d="M18.905 8.43781H18.9062H11.5624V1.10789C11.5624 0.504634 11.074 0.000244141 10.4707 0.000244141H9.53106C8.92797 0.000244141 8.4374 0.504634 8.4374 1.10789V8.43781H1.09382C0.490894 8.43781 0 8.92561 0 9.52903V10.4741C0 11.077 0.490732 11.5627 1.09382 11.5627H8.43756V18.9191C8.43756 19.522 8.92797 20.0001 9.53122 20.0001H10.4709C11.0741 20.0001 11.5626 19.5219 11.5626 18.9191V11.5627H18.905C19.5083 11.5627 20 11.0768 20 10.4741V9.52903C20 8.92561 19.5083 8.43781 18.905 8.43781Z" fill="#CCCCCC"/>
</svg>
