<svg width="30" height="30" viewBox="0 0 30 30" fill="none" xmlns="http://www.w3.org/2000/svg">
<path d="M23.9707 0.644531H6.0293C5.36719 0.644531 4.83398 1.17773 4.83398 1.83984V28.1602C4.83398 28.8223 5.36719 29.3555 6.0293 29.3555H23.9766C24.6387 29.3555 25.1719 28.8223 25.1719 28.1602V1.83984C25.166 1.17773 24.6328 0.644531 23.9707 0.644531ZM22.7754 3.03516V18.8496H7.22461V3.03516H22.7754ZM22.7754 26.9648H7.22461V21.2461H22.7754V26.9648Z" fill="#CCCCCC"/>
<path d="M14.502 25.3008H15.498C16.1602 25.3008 16.6934 24.7676 16.6934 24.1055C16.6934 23.4434 16.1602 22.9102 15.498 22.9102H14.502C13.8398 22.9102 13.3066 23.4434 13.3066 24.1055C13.3066 24.7617 13.8398 25.3008 14.502 25.3008Z" fill="#CCCCCC"/>
</svg>
