<svg width="40" height="40" viewBox="0 0 40 40" fill="none" xmlns="http://www.w3.org/2000/svg">
<rect width="40" height="40" fill="#50ABF1"/>
<path d="M27.1683 16.6282C27.8728 16.0998 28.5068 15.4658 29 14.726C28.3659 15.0078 27.6262 15.2192 26.8865 15.2896C27.6614 14.8317 28.225 14.1272 28.5068 13.2466C27.8023 13.6693 26.9922 13.9863 26.182 14.1624C25.4775 13.4227 24.5264 13 23.4697 13C21.4266 13 19.771 14.6556 19.771 16.6986C19.771 16.9804 19.8063 17.2622 19.8767 17.544C16.8121 17.3679 14.0646 15.8885 12.2329 13.6693C11.9159 14.1977 11.7397 14.8317 11.7397 15.5362C11.7397 16.8043 12.3738 17.9315 13.3953 18.6008C12.7965 18.5656 12.1977 18.4247 11.7045 18.1429V18.1781C11.7045 19.9746 12.9726 21.454 14.6634 21.8063C14.3816 21.8767 14.0294 21.9472 13.7123 21.9472C13.4658 21.9472 13.2544 21.9119 13.0078 21.8767C13.4658 23.3562 14.8395 24.4129 16.4599 24.4481C15.1918 25.4344 13.6067 26.0333 11.8806 26.0333C11.5636 26.0333 11.2818 25.998 11 25.9628C12.6204 27.0196 14.5577 27.6184 16.6712 27.6184C23.4697 27.6184 27.1683 22.0176 27.1683 17.1213C27.1683 16.9452 27.1683 16.8043 27.1683 16.6282Z" fill="white"/>
</svg>
