<svg width="40" height="40" viewBox="0 0 40 40" fill="none" xmlns="http://www.w3.org/2000/svg">
<rect width="40" height="40" fill="#15ACE5"/>
<path d="M28.0357 21.7679C28.1562 21.2054 28.2366 20.6027 28.2366 20C28.2366 15.4598 24.5402 11.7634 20 11.7634C19.3973 11.7634 18.7946 11.8438 18.2321 11.9643C17.4687 11.3616 16.5045 11 15.5 11C13.0089 11 11 13.0491 11 15.5C11 16.5446 11.3214 17.5089 11.9241 18.2723C11.8036 18.8348 11.7232 19.4375 11.7232 20C11.7232 24.5804 15.4196 28.2768 19.9598 28.2768C20.5625 28.2768 21.1652 28.1964 21.7277 28.0759C22.4911 28.6786 23.4554 29 24.4598 29C26.9509 29 28.9598 26.9911 28.9598 24.5C29 23.4955 28.6384 22.5313 28.0357 21.7679ZM20.2411 25.4643C17.5893 25.4643 15.3795 24.2991 15.3795 22.8527C15.3795 22.2098 15.7411 21.6071 16.5848 21.6071C17.8304 21.6071 17.9509 23.4152 20.1205 23.4152C21.125 23.4152 21.808 22.9732 21.808 22.3705C21.808 21.6071 21.1652 21.4866 20.1205 21.2455C17.6295 20.6027 15.3795 20.3616 15.3795 17.75C15.3795 15.3393 17.75 14.4554 19.7589 14.4554C21.9687 14.4554 24.2187 15.3393 24.2187 16.7054C24.2187 17.3884 23.7768 17.9911 23.0134 17.9911C21.8884 17.9911 21.8482 16.625 20 16.625C18.9554 16.625 18.3125 16.9063 18.3125 17.5491C18.3125 18.3125 19.1562 18.3929 21.0848 18.875C22.7321 19.2366 24.7411 19.9196 24.7411 21.9688C24.7411 24.3393 22.4509 25.4643 20.2411 25.4643Z" fill="white"/>
</svg>
