<svg width="40" height="40" viewBox="0 0 40 40" fill="none" xmlns="http://www.w3.org/2000/svg">
<rect width="40" height="40" fill="#5C6BC0"/>
<path d="M22.4414 19.5781C22.4414 19.0156 22.0195 18.5586 21.5273 18.5586C21 18.5586 20.5781 19.0156 20.5781 19.5781C20.5781 20.1055 21 20.5625 21.5273 20.5625C22.0195 20.5625 22.4414 20.1055 22.4414 19.5781ZM18.2227 18.5586C17.7305 18.5586 17.3086 19.0156 17.3086 19.5781C17.3086 20.1055 17.7305 20.5625 18.2227 20.5625C18.75 20.5625 19.1367 20.1055 19.1367 19.5781C19.1719 19.0156 18.75 18.5586 18.2227 18.5586ZM27.75 12.8633C27.75 11.8438 26.9062 11 25.8867 11H13.8281C12.8086 11 12 11.8438 12 12.8633V25.0273C12 26.082 12.8086 26.8906 13.8281 26.8906H24.0234L23.5664 25.2383C26.2031 27.6641 25.4648 27.0312 27.75 29V12.8633ZM25.1836 21.4062C25.1836 21.4062 24.4102 22.707 22.4062 22.7773C22.4062 22.7773 22.0898 22.3906 21.8086 22.0391C23.0039 21.7227 23.4609 20.9844 23.4609 20.9844C23.0742 21.2305 22.7227 21.3711 22.4062 21.5117C20.4727 22.3203 18.3281 22.0391 16.7812 21.1953C16.7812 21.1602 16.5703 21.0547 16.4297 20.9492C16.4297 20.9492 16.8516 21.6875 18.0117 22.0391C17.7305 22.3555 17.4141 22.7773 17.4141 22.7773C15.4102 22.707 14.6719 21.4062 14.6719 21.4062C14.6719 18.4883 15.9375 16.168 15.9375 16.168C17.2383 15.1836 18.4688 15.2188 18.4688 15.2188L18.5742 15.3242C16.957 15.7812 16.2188 16.4844 16.2188 16.4844C16.2188 16.4844 16.3945 16.3789 16.7461 16.2383C18.8203 15.3242 21.3164 15.3242 23.4609 16.4844C23.4609 16.4844 22.7578 15.8164 21.2109 15.3594L21.3516 15.2188C21.3516 15.2188 22.582 15.1836 23.8828 16.168C23.8828 16.168 25.1836 18.4883 25.1836 21.4062Z" fill="white"/>
</svg>
