<svg width="40" height="40" viewBox="0 0 40 40" fill="none" xmlns="http://www.w3.org/2000/svg">
<rect width="40" height="40" fill="#C536A4"/>
<path d="M20.0201 15.3594C17.4487 15.3594 15.3996 17.4487 15.3996 19.9799C15.3996 22.5513 17.4487 24.6004 20.0201 24.6004C22.5513 24.6004 24.6406 22.5513 24.6406 19.9799C24.6406 17.4487 22.5513 15.3594 20.0201 15.3594ZM20.0201 22.9933C18.3728 22.9933 17.0067 21.6674 17.0067 19.9799C17.0067 18.3326 18.3326 17.0067 20.0201 17.0067C21.6674 17.0067 22.9933 18.3326 22.9933 19.9799C22.9933 21.6674 21.6674 22.9933 20.0201 22.9933ZM25.8862 15.1987C25.8862 14.596 25.404 14.1138 24.8013 14.1138C24.1987 14.1138 23.7165 14.596 23.7165 15.1987C23.7165 15.8013 24.1987 16.2835 24.8013 16.2835C25.404 16.2835 25.8862 15.8013 25.8862 15.1987ZM28.9397 16.2835C28.8594 14.8371 28.5379 13.5513 27.4933 12.5067C26.4487 11.4621 25.1629 11.1406 23.7165 11.0603C22.2299 10.9799 17.7701 10.9799 16.2835 11.0603C14.8371 11.1406 13.5915 11.4621 12.5067 12.5067C11.4621 13.5513 11.1406 14.8371 11.0603 16.2835C10.9799 17.7701 10.9799 22.2299 11.0603 23.7165C11.1406 25.1629 11.4621 26.4085 12.5067 27.4933C13.5915 28.5379 14.8371 28.8594 16.2835 28.9397C17.7701 29.0201 22.2299 29.0201 23.7165 28.9397C25.1629 28.8594 26.4487 28.5379 27.4933 27.4933C28.5379 26.4085 28.8594 25.1629 28.9397 23.7165C29.0201 22.2299 29.0201 17.7701 28.9397 16.2835ZM27.0112 25.2835C26.7299 26.0871 26.0871 26.6897 25.3237 27.0112C24.1183 27.4933 21.3058 27.3728 20.0201 27.3728C18.6942 27.3728 15.8817 27.4933 14.7165 27.0112C13.9129 26.6897 13.3103 26.0871 12.9888 25.2835C12.5067 24.1183 12.6272 21.3058 12.6272 19.9799C12.6272 18.6942 12.5067 15.8817 12.9888 14.6763C13.3103 13.9129 13.9129 13.3103 14.7165 12.9888C15.8817 12.5067 18.6942 12.6272 20.0201 12.6272C21.3058 12.6272 24.1183 12.5067 25.3237 12.9888C26.0871 13.2701 26.6897 13.9129 27.0112 14.6763C27.4933 15.8817 27.3728 18.6942 27.3728 19.9799C27.3728 21.3058 27.4933 24.1183 27.0112 25.2835Z" fill="white"/>
</svg>
