<svg width="40" height="40" viewBox="0 0 40 40" fill="none" xmlns="http://www.w3.org/2000/svg">
<rect width="40" height="40" fill="#1BD741"/>
<path d="M26.2679 13.6518C24.6205 11.9643 22.3705 11 19.9598 11C15.058 11 11.0402 15.0179 11.0402 19.9196C11.0402 21.5268 11.4821 23.0536 12.2455 24.3795L11 29L15.7009 27.7946C17.0268 28.4777 18.4732 28.8795 19.9598 28.8795C24.9018 28.8795 29 24.8616 29 19.9598C29 17.5491 27.9554 15.3393 26.2679 13.6518ZM19.9598 27.3527C18.6339 27.3527 17.3482 26.9911 16.183 26.308L15.942 26.1473L13.1295 26.9107L13.8929 24.1786L13.692 23.8973C12.9688 22.692 12.567 21.3259 12.567 19.9196C12.567 15.8616 15.9018 12.5268 20 12.5268C21.9688 12.5268 23.817 13.2902 25.2232 14.6964C26.6295 16.1027 27.4732 17.9509 27.4732 19.9598C27.4732 24.0179 24.058 27.3527 19.9598 27.3527ZM24.058 21.808C23.817 21.6875 22.7321 21.1652 22.5313 21.0848C22.3304 21.0045 22.1696 20.9643 22.0089 21.2054C21.8884 21.4062 21.4464 21.9286 21.3259 22.0893C21.1652 22.2098 21.0446 22.25 20.8438 22.1295C19.5179 21.4866 18.6741 20.9643 17.7902 19.4777C17.5491 19.0759 18.0313 19.1161 18.433 18.2723C18.5134 18.1116 18.4732 17.9911 18.433 17.8705C18.3929 17.75 17.9107 16.6652 17.75 16.2232C17.5491 15.7812 17.3884 15.8214 17.2277 15.8214C17.1071 15.8214 16.9464 15.8214 16.8259 15.8214C16.6652 15.8214 16.4241 15.8616 16.2232 16.1027C16.0223 16.3438 15.4598 16.8661 15.4598 17.9509C15.4598 19.0759 16.2232 20.1205 16.3438 20.2812C16.4643 20.4018 17.9107 22.6518 20.1607 23.6161C21.567 24.2589 22.1295 24.2991 22.8527 24.1786C23.2545 24.1384 24.1384 23.6563 24.3393 23.1339C24.5402 22.6116 24.5402 22.1696 24.4598 22.0893C24.4196 21.9688 24.2589 21.9286 24.058 21.808Z" fill="white"/>
</svg>
