<svg width="164" height="107" viewBox="0 0 164 107" fill="none" xmlns="http://www.w3.org/2000/svg">
<path fill-rule="evenodd" clip-rule="evenodd" d="M139.318 57.7456C138.671 56.906 138.239 55.9225 137.663 55.059C136.824 53.8116 135.96 54.3154 134.689 53.6677C134.689 50.6932 135.552 47.1911 138.071 47.5749L138.503 47.7188C138.383 48.5823 138.791 49.23 138.383 50.0216H138.215C136.968 50.5253 136.992 53.3079 138.647 53.3079C140.302 53.3079 140.134 50.5253 138.887 50.0216H138.863L138.743 47.8867L138.839 47.6468C139.031 47.215 138.839 47.239 139.318 47.1431L140.014 46.4235L140.086 47.407L141.021 46.6393L141.117 47.5989L142.053 47.407L141.693 48.1026C148.985 44.0727 134.905 37.1163 136.296 46.3035L136.944 45.7998L137.231 46.6393L137.615 45.9437L138.071 46.9512L138.719 46.1836C138.743 46.1596 138.719 47.215 138.719 47.407L135.816 46.8792C135.169 44.0487 134.929 42.2256 135.073 39.1312C135.312 39.1792 135.936 38.7474 136.008 38.7714C136.176 38.7954 135.72 39.3231 136.2 40.2107C136.848 39.3711 136.896 39.3471 137.183 39.1792C137.783 39.587 137.303 40.0428 137.759 40.4506C138.719 40.0667 138.599 39.1552 139.102 38.8914C139.39 38.7474 139.51 39.9708 139.774 39.7549C140.278 39.3231 140.374 38.1238 140.566 38.1477C140.95 38.2197 140.614 39.4671 140.806 39.4191C140.997 39.3471 141.237 39.0833 141.693 38.4836L141.789 39.9948L142.629 38.9633L142.701 39.9228C143.252 40.1387 143.252 38.6755 143.444 38.0278L143.78 39.4431C146.826 36.5886 145.267 34.2378 142.941 31.5991C141.045 29.4882 139.246 26.8496 136.2 26.2979C132.65 25.6502 130.227 28.2649 127.66 29.7761C124.854 31.4552 124.638 35.2452 126.677 37.7879L127.061 36.6845L127.708 37.0683L127.732 35.629L128.692 36.5885L129.244 35.0294L130.083 36.3727C130.227 36.6125 130.203 35.6051 130.803 35.2932L130.971 36.9484L132.122 35.9889C132.218 38.4356 132.746 37.0443 132.77 39.0353C132.53 39.1552 131.163 38.2437 131.211 38.3396C131.307 38.5076 132.53 39.3471 132.866 39.4191L134.161 40.2586C134.281 42.6334 134.401 45.0322 134.545 47.407C133.825 48.2705 133.273 47.4069 132.698 46.6633C132.53 47.5269 133.753 48.0306 134.041 48.7023L131.618 53.14L129.819 52.6602L131.043 50.3094L128.932 52.0366L128.308 51.6288L128.38 51.197L127.924 51.3889L127.588 51.173L127.66 50.5733L127.133 50.7172C126.965 50.7652 126.893 50.4294 126.533 50.1655L127.469 49.182L125.909 49.9256L125.43 49.4699L124.974 49.158L124.71 48.4144L124.134 49.158C124.038 49.278 123.846 49.326 123.463 49.3739L125.238 45.0082C124.638 45.9437 122.695 48.8222 121.712 49.1341L122.431 47.4789L120.464 48.7263L120.656 45.8238L119.169 47.6948L117.538 39.659L113.532 39.2032C113.148 38.1717 113.82 39.1552 113.292 37.692C112.836 36.4686 113.004 37.2122 113.052 35.749C113.1 34.3577 112.716 33.4462 112.668 32.1988L116.242 31.1913C115.139 28.3128 108.159 29.2723 107.871 32.5107L111.877 32.3427C112.5 33.734 112.524 35.4371 112.332 36.9484L111.901 37.5001C111.493 38.2677 112.356 37.8839 111.925 38.7474L110.269 38.8674C109.67 38.8674 109.262 38.5315 108.614 38.5795L108.638 37.548C109.646 37.2362 109.838 37.4761 110.03 38.5315C110.533 37.9558 110.173 37.3082 109.958 36.5166L108.398 36.3487C108.278 35.6051 108.662 34.6935 108.111 34.1418C107.655 33.6621 106.767 33.4222 106.407 34.0699L106.431 37.0443L105.592 38.2677L103.001 38.2917L102.857 43.7129L102.138 45.392L102.162 47.7188L101.274 47.6948C101.226 47.1671 101.178 43.1132 101.178 41.9378C101.178 40.8104 101.178 39.6829 101.154 38.5555V36.6125L101.97 36.6605L101.154 34.5016L101.13 29.992L99.7389 29.92L98.7794 27.1374L99.1152 27.3533C101.322 28.7686 105.328 30.7116 106.911 29.6082C107.031 27.5452 105.064 27.0895 104.968 25.5303C104.944 25.0265 105.184 22.4119 105.28 21.8122C105.52 20.1331 105.232 21.1405 106.335 20.3729L104.824 18.9817C103.625 19.1736 104.968 19.7493 102.521 19.3895C101.802 19.2695 100.123 19.1496 99.5949 18.9097C98.2996 18.286 98.0358 16.1271 96.2607 16.2231C94.9174 17.1586 95.4691 21.5723 96.5485 23.9231C93.3102 26.6097 96.3566 27.5452 96.3326 28.2169L96.3086 30.8795H94.8694L91.8949 28.9845L90.9834 31.3353H89.808L89.784 33.5901L87.841 37.4281L88.8725 37.4041L88.8485 43.9767C87.0734 43.3291 87.0974 37.74 87.3133 36.1808C87.6731 34.6695 87.961 25.4103 87.5532 24.043C87.2653 23.1075 85.3223 20.8287 83.9071 18.9817L84.075 14.2561L84.5547 12.529L83.0675 12.0732V9.24271L83.5233 9.21872L82.6837 7.20376V5.5726H82.3479L82.3239 4.90095C82.3959 4.75703 82.5638 4.63709 82.6597 4.49316C83.3554 3.67759 85.2504 2.86201 86.2339 2.86201C86.8575 3.12587 85.97 3.91746 85.8501 4.44519C85.8261 4.58911 85.994 4.73304 86.1859 4.78101C88.1529 5.28475 94.1738 4.73304 95.3491 2.45422C93.0703 2.74207 88.2008 3.0779 87.913 2.38226C87.841 0.990977 88.2488 -0.0884649 84.9385 0.535212C83.6912 0.775088 83.0915 1.42275 81.9401 1.87852L81.8681 5.35672L81.5803 5.42868V7.3237H78.4859L77.9342 8.73897H78.4859L78.4619 9.98632L77.8622 9.96233L75.2476 8.8589L71.9613 12.0972L71.9373 17.7103L68.8669 20.0611L68.2672 34.8854C68.2432 35.3412 67.3796 38.1238 67.0438 38.7474L66.8279 37.9319C66.8279 36.9004 66.9479 26.5617 66.9239 26.5138L65.7725 26.5378L65.7964 27.4973L64.4531 27.4493L64.4771 23.8751L63.1338 23.2275L63.1098 21.5243L63.8295 21.5483V18.1661L63.2298 18.0941L60.3273 14.544L57.4488 18.238L56.5612 18.31L56.6332 21.7402L57.3288 21.7642L57.3528 27.4733H55.9136V26.5138L54.9541 26.5378V27.4733H53.5388L53.5148 26.5138H52.5313L52.5793 29.872H49.197V30.5677L50.1805 30.6396L52.8432 33.4462C53.0111 33.6141 52.2435 37.5481 52.1955 38.1238C52.0995 39.2752 51.9556 40.2586 52.5073 40.3786L52.9871 40.4745L53.155 41.6739L49.9407 43.1372L49.5329 42.8493L50.5883 41.9138L50.4684 41.53L48.6693 42.5615L48.4534 42.3935L49.7488 40.7624L49.197 40.4985L48.1176 41.8898L47.7578 41.602C48.6693 40.9063 48.5974 40.6425 48.6453 39.8988C48.6933 39.3231 49.4129 38.7954 50.5883 37.4521C50.3724 37.3082 50.0126 36.8764 49.7967 36.9963C49.0051 37.4761 47.422 39.7549 46.7983 40.5705C46.3185 41.1942 45.6469 42.0097 45.1431 42.5615L44.0397 43.5929L44.5195 44.2886L46.5824 42.0337L47.326 41.6499L47.5419 42.0337L47.0382 42.4895L47.2541 42.7534L47.8298 42.3696L48.0696 42.6334L47.4459 43.2331L47.7578 43.497L48.8132 42.8253L49.1251 43.2571L48.0217 44.0007L48.2615 44.4805L47.1581 45.0562L47.0621 45.5119L46.3665 45.5599L46.3425 45.4879L45.7908 45.0322L45.5269 45.6559L45.5509 45.8478L44.9033 46.0876L44.8793 45.9197L44.3276 45.464L44.0637 46.0876L44.1117 46.3515L43.392 46.6154L43.2721 46.0876L42.7444 45.6319L42.4805 46.2555L42.6005 46.8792L42.1207 47.0471L42.0487 46.7833L41.617 46.2555L41.3531 46.8792L41.4251 47.263L40.8973 47.4549L40.8254 47.0711L40.2737 46.6154L40.0098 47.239L40.1058 47.7428L39.5061 47.9587V47.9347L38.7145 47.287L38.5226 48.1506L38.5705 48.2945L37.9948 48.5104L37.0114 45.7278L38.4266 45.7998L38.5226 44.8883C39.4101 45.392 40.2017 45.392 40.8973 45.0082L39.1462 43.8328L41.1372 43.425L38.7624 42.7534L39.9618 42.2736L38.5466 41.0023H41.0413L38.9304 40.1867C39.7939 39.6829 39.7459 40.0188 40.7054 39.2272C39.4341 39.1792 38.1867 38.7954 36.9394 38.2437C37.8749 37.9079 38.8104 37.572 39.7459 37.2362C38.6185 37.2362 37.4911 37.0203 36.3637 36.6365C36.9154 36.3007 38.2347 35.9649 38.7864 35.629C37.4911 35.2692 36.9154 35.2932 35.6201 34.4297L37.9948 33.758L34.2528 32.0549L36.2917 31.5512C35.4762 31.3593 34.1808 30.8795 32.9095 29.7521L34.6846 29.7041L30.1989 25.986L28.9035 30.3278L29.911 30.2079C30.5587 30.1359 29.4073 33.758 28.5197 34.1658C28.9755 34.0459 29.6951 33.71 30.3188 33.1583L28.8796 36.4926L30.8465 35.4132C30.7266 36.4926 29.7431 37.1403 28.8556 37.668C29.2394 37.8119 30.4627 37.74 30.5587 37.8119L29.0475 39.3951L31.1104 38.5076C31.0624 39.9708 30.4867 39.9468 29.959 40.4745L31.0384 40.4026L30.1509 41.6979C31.2783 41.506 31.1584 41.602 31.3983 41.6739C31.7581 41.7699 31.3023 42.6814 30.3668 43.9527L31.5182 43.2331C31.806 44.1206 30.8705 44.6244 30.7746 44.9122C31.1584 44.6724 32.1179 44.0487 32.5017 43.8088C32.5257 44.4565 32.1898 45.2001 31.6621 45.4879C31.854 45.6079 32.2618 45.416 32.4297 45.5119L31.2303 46.4235C32.5976 46.6393 33.1973 45.9437 33.1973 45.9917C33.1973 46.0397 33.4852 46.2795 33.2213 47.1191L34.3247 45.7758C34.6366 46.1116 34.9724 46.4474 35.0444 46.8792C35.1163 47.287 35.5961 45.9437 36.1238 46.0157L37.0593 48.8942C36.8434 49.0141 36.6515 49.1101 36.4596 49.206L35.5961 48.7023L35.5721 49.6858C35.3322 49.8297 35.0923 49.9496 34.8765 50.0936L33.821 49.4939L33.797 50.5493L33.917 50.6932C33.5571 50.9091 33.2453 51.101 32.9814 51.2929L32.8375 51.0291L31.7821 50.4294L31.7581 51.4848L32.0219 51.9646L31.4462 52.3004L31.3023 52.1085L30.3908 51.5808L30.3668 52.4683L30.6067 52.7802L30.1989 53.02L29.7191 52.2524C29.5272 51.7727 29.3113 51.2929 29.1194 50.8132C29.6951 50.2855 30.6546 50.1895 31.6381 50.1175L30.5827 49.6858C30.5107 49.6618 31.1584 49.4939 31.4942 49.1341C30.7506 49.23 30.0789 49.254 29.6232 48.9661L31.0145 48.2225C30.4148 48.3665 29.887 48.2945 29.4553 47.9347L31.0864 47.5509C30.3668 47.5269 29.7671 47.383 29.2874 47.0951L30.6307 46.2316C29.7671 46.3995 29.0715 46.3035 28.6157 45.7998L30.031 45.1041C29.0715 45.0322 28.112 44.8643 27.0325 44.1207L28.6157 43.8328L26.097 42.2256L27.5123 41.9618L25.2574 41.3381L26.169 40.9543C24.9216 40.6185 24.082 39.7069 23.4824 38.5795L22.8827 42.8013L23.3384 42.2976C23.4584 42.8973 23.1225 43.9767 23.1225 44.6484L24.0581 43.9527L23.1705 46.0636L24.4419 45.4879C24.6577 45.368 23.6982 47.9827 23.3864 48.0546L24.7777 47.6708L23.9861 49.278L25.2334 48.5584L24.202 50.5253L25.4254 50.1895L24.8017 51.9646C25.6412 51.7247 25.8811 51.3169 25.9051 51.4129C25.9291 51.4848 25.7372 52.0126 25.9771 52.4923L26.8646 51.197C26.9366 51.101 26.9366 51.7727 27.1045 52.1325L28.1839 51.149L29.2394 53.5718L29.0715 53.6677L28.2319 53.188L28.2079 54.1714L28.064 54.2674L27.8961 54.3873L28.04 54.7232L28.2559 54.5792L28.3998 54.5073L29.0475 55.3708L28.8556 55.4668L28.9275 55.5148L28.5197 55.7067L28.9035 56.1864L29.4313 55.9225L30.4627 57.2898C29.4793 58.4173 26.9366 59.5926 25.3774 59.8805L25.6892 55.6347L0.574219 56.2344V106.464C55.1939 100.252 109.046 100.276 163.69 106.44V55.9465L139.318 57.7456ZM139.007 51.6288C139.007 52.1085 138.863 52.5163 138.671 52.5163C138.503 52.5163 138.359 52.1085 138.359 51.6288C138.359 51.125 138.503 50.7412 138.671 50.7412C138.839 50.7412 139.007 51.125 139.007 51.6288ZM133.202 39.2032C133.058 38.2917 133.13 38.3636 133.561 37.62C134.209 38.5555 133.369 38.4356 134.209 39.587L133.202 39.2032ZM102.449 22.6038L101.97 21.8122L103.313 21.2845C103.241 22.1 103.145 21.9081 102.449 22.6038ZM104.536 21.0206C104.632 21.9801 104.321 23.5153 103.793 24.3789L103.073 23.4434C103.265 22.4599 103.865 21.4284 104.536 21.0206ZM103.841 20.0611C103.601 20.8527 102.473 21.0686 101.442 21.2125C100.77 20.5169 100.77 20.7807 100.506 19.8932L103.841 20.0611ZM51.4519 31.0714L51.4279 30.5917H52.7952V32.0789L51.4519 31.0714ZM29.935 54.8671L29.3113 54.0275L29.4073 53.9795L30.031 54.8191L29.935 54.8671ZM47.1101 46.0157C47.0621 46.1356 46.8942 47.287 46.8942 47.287L46.6544 46.2316C46.6544 46.2076 47.0861 46.0636 47.1101 46.0157ZM45.6709 46.4954L45.9347 47.6228L45.407 47.8147L45.1911 46.7113L45.6709 46.4954ZM44.2556 46.9992L44.4475 48.1985L43.9678 48.3665L43.7039 47.1671L44.2556 46.9992ZM42.7204 47.5269L42.9603 48.7742L42.7204 48.8942L42.4565 47.6708L42.7204 47.5269ZM41.4491 47.9587L41.6889 49.254L41.3291 49.3979L41.0653 48.1026L41.4491 47.9587ZM40.0578 48.3665L40.3696 49.7577L40.1297 49.8537L39.722 48.5584L40.0578 48.3665ZM39.3621 51.4129L40.4656 51.077L40.2257 50.4774L40.4656 50.4054L40.5615 50.8852L41.641 50.6453L41.497 50.0696L41.7849 49.9256L41.9048 50.5013L43.0082 50.1895L42.7684 49.4939L42.9363 49.4219L43.0322 49.3979L43.1042 49.7817L44.2556 49.6138L44.1357 49.0861L44.5435 48.9422L44.6874 49.4459L45.6949 49.254L45.503 48.5104C45.503 48.5104 46.0067 48.4144 46.0307 48.4144C46.0547 48.4144 45.407 49.9496 45.407 49.9496L39.1702 52.0605L38.8824 50.9811L39.1702 50.8132L39.3621 51.4129ZM38.6425 48.8702L39.1223 50.2855L38.6425 50.4294L38.1388 49.158L38.6425 48.8702ZM37.2512 49.5179L37.611 50.8372L36.8914 49.6858L37.2512 49.5179ZM35.86 50.3094L36.4356 51.3889L36.0998 51.6528L35.3562 50.5973L35.86 50.3094ZM34.2528 51.173L34.9964 52.1085L33.6771 52.8521L33.1973 51.8207L34.2528 51.173ZM32.2138 52.4204L32.7176 53.4038L32.3098 53.6197L31.6621 52.7322L32.2138 52.4204ZM31.7581 54.6032L32.0939 55.1549L33.0294 54.5073L32.7656 54.0995L33.0774 53.9316L33.2933 54.4113L34.2768 53.7876L34.0369 53.4038L35.4522 52.7562L35.86 53.2839L36.8914 52.5403L36.6036 52.1565L36.8195 52.0605L37.1313 52.6362L37.2752 52.5643L37.2992 53.188L32.4777 56.0665L31.4702 54.7471L31.7581 54.6032ZM30.7506 53.2839L31.3743 53.9795L31.0384 54.2434L30.4388 53.4758L30.7506 53.2839ZM30.2948 55.3468L30.4148 55.2749L31.1104 56.0665L31.4222 56.5942L30.9905 56.882L30.9665 56.8341L31.2543 56.6182L30.2948 55.3468ZM19.9562 75.6883L19.7403 84.5637L13.7434 84.6357L13.6954 100.515L4.24432 102.243V59.1849L21.6833 59.1609L20.8437 68.492L13.8393 68.4441L13.6714 75.5924L19.9562 75.6883ZM43.9678 83.3883C43.416 91.76 39.578 100.707 29.3113 97.7089C20.9637 95.2622 20.8917 83.1484 21.3714 76.192C21.9472 67.7244 25.8571 59.4487 36.0039 62.2313C44.2316 64.4861 44.4235 76.5279 43.9678 83.3883ZM58.2164 98.6684L54.7622 86.5787L54.2824 97.3491H45.335V61.8955C48.9092 61.7036 57.8805 61.3677 60.7591 62.8789C66.564 65.9014 68.507 74.5609 65.6525 80.246C64.1893 83.1724 62.5341 82.5248 63.5416 85.4992C64.2373 87.5142 67.4036 96.4376 67.4756 97.8768L58.2164 98.6684ZM86.6177 72.5219L81.5323 72.5459L81.4843 97.1092L72.1532 97.1572V71.0347L67.2117 70.9628L67.1877 62.0873L86.5937 63.4786L86.6177 72.5219ZM107.967 37.2842L108.015 38.3157L106.383 38.0998C106.863 37.3801 107.055 37.1403 107.967 37.2842ZM97.6759 25.8421C98.2516 26.106 98.4675 26.7536 97.7719 27.5932C97.7239 27.4973 97.4361 27.1374 97.508 26.7776C97.2921 25.6502 97.4601 26.3698 97.6759 25.8421ZM96.9323 24.5708L96.7644 27.3533C95.2772 26.7536 95.4931 25.1705 96.9323 24.5708ZM102.186 98.0208L95.7809 83.2444L96.2367 96.7254H87.817L87.6971 63.2627L95.1333 61.6556L101.706 77.3195L100.65 61.4397L109.07 61.4157L109.454 97.3491L102.186 98.0208ZM120.872 98.2846H111.565L111.517 63.0229L120.872 63.0708V98.2846ZM141.813 72.7138H136.584L136.512 99.484L127.181 99.46V73.7933L122.167 73.7213L122.119 64.726L141.813 63.6465V72.7138ZM143.036 100.06L142.964 61.1278L159.036 59.7845V70.1232L152.344 70.411L152.104 76.1441L157.957 76.336L158.005 84.3238L152.392 84.4438L152.296 91.5921L158.916 91.664L159.06 101.235L143.036 100.06Z" fill="white"/>
</svg>
